<svg width="26" height="29" viewBox="0 0 26 29" fill="none" xmlns="http://www.w3.org/2000/svg">
<path d="M25.4209 29L22.3579 26.3L20.6314 24.695L18.8059 23L19.5559 25.6385H3.40391C2.62708 25.6357 1.88313 25.3247 1.33551 24.7737C0.787896 24.2227 0.481415 23.4768 0.483408 22.7V3.4355C0.482211 2.65919 0.789044 1.91411 1.33657 1.36377C1.8841 0.813426 2.6276 0.50278 3.40391 0.5H22.5004C23.2767 0.50278 24.0202 0.813426 24.5677 1.36377C25.1153 1.91411 25.4221 2.65919 25.4209 3.4355V29ZM18.6334 16.262C18.0009 17.1103 17.0903 17.7092 16.0609 17.954C16.4839 18.494 16.9939 19.1045 16.9984 19.1105C17.8461 19.1284 18.6856 18.9408 19.4449 18.5635C20.2043 18.1863 20.861 17.6308 21.3589 16.9445C21.3072 14.0566 20.6058 11.2174 19.3069 8.6375C18.1634 7.74015 16.7714 7.21645 15.3199 7.1375H15.3034L15.1039 7.3655C16.4004 7.71373 17.6094 8.32999 18.6529 9.1745C17.3252 8.44461 15.8681 7.97998 14.3629 7.8065C13.4063 7.70025 12.4403 7.70982 11.4859 7.835C11.4184 7.83634 11.3512 7.84336 11.2849 7.856H11.2429C10.1244 7.98478 9.03312 8.28848 8.00891 8.756C7.49591 8.9915 7.18091 9.1625 7.16741 9.1685C7.15391 9.1745 7.16741 9.1685 7.16741 9.158C8.27441 8.288 9.55241 7.658 10.9159 7.3115L10.7659 7.1405H10.7569C9.3055 7.21964 7.91356 7.74332 6.76991 8.6405C5.46627 11.2186 4.76465 14.0589 4.71791 16.9475C5.20934 17.638 5.86329 18.1969 6.62197 18.5746C7.38066 18.9524 8.22071 19.1375 9.06791 19.1135C9.06791 19.1135 9.60491 18.4595 10.0234 17.93C9.01991 17.6778 8.13569 17.0837 7.52291 16.25C7.53341 16.2575 7.68191 16.358 7.92191 16.49C7.93691 16.5095 7.95791 16.5245 7.98041 16.535C7.99939 16.5482 8.01946 16.5597 8.04041 16.5695C8.39572 16.7703 8.76578 16.9438 9.14741 17.0885C9.82691 17.3585 10.5304 17.564 11.2474 17.7035C11.8759 17.822 12.5134 17.8835 13.1524 17.8835C13.7524 17.8835 14.3494 17.828 14.9389 17.7185C15.6485 17.5939 16.3415 17.3886 17.0044 17.1065C17.577 16.8863 18.1234 16.603 18.6334 16.262ZM15.5764 15.6215C15.2572 15.6496 14.9369 15.5806 14.6575 15.4235C14.3782 15.2664 14.1528 15.0286 14.011 14.7412C13.8692 14.4538 13.8176 14.1302 13.8629 13.813C13.9081 13.4957 14.0482 13.1995 14.2648 12.9633C14.4813 12.727 14.7642 12.5617 15.0764 12.4891C15.3885 12.4164 15.7153 12.4397 16.0139 12.556C16.3126 12.6723 16.5691 12.8762 16.7498 13.1408C16.9306 13.4054 17.0272 13.7185 17.0269 14.039C17.0599 14.876 16.4119 15.584 15.5749 15.6215H15.5764ZM10.3744 15.6215C9.97849 15.587 9.60989 15.4053 9.34135 15.1124C9.07281 14.8194 8.92384 14.4364 8.92384 14.039C8.92384 13.6416 9.07281 13.2586 9.34135 12.9656C9.60989 12.6727 9.97849 12.491 10.3744 12.4565C10.5616 12.4569 10.7467 12.495 10.9189 12.5684C11.091 12.6418 11.2466 12.7492 11.3764 12.884C11.6749 13.193 11.8369 13.6085 11.8264 14.0375C11.8431 14.4401 11.6995 14.833 11.427 15.1299C11.1545 15.4268 10.7755 15.6036 10.3729 15.6215H10.3744Z" fill="#E3E3E3"/>
</svg>
