<svg width="37" height="36" viewBox="0 0 37 36" fill="none" xmlns="http://www.w3.org/2000/svg">
<path d="M19.0221 3C15.4687 2.99954 12.0311 4.26372 9.32469 6.56625C6.61825 8.86878 4.81959 12.0594 4.25067 15.5669C3.68175 19.0744 4.3797 22.67 6.2196 25.7099C8.05949 28.7499 10.9212 31.0358 14.2926 32.1585C15.0426 32.2935 15.3111 31.833 15.3111 31.437C15.3111 31.0815 15.2991 30.1395 15.2946 28.887C11.1321 29.787 10.2531 26.88 10.2531 26.88C9.97905 25.9754 9.38994 25.199 8.59257 24.6915C7.24257 23.763 8.69607 23.784 8.69607 23.784C9.65607 23.916 10.5036 24.4845 10.9866 25.326C11.1893 25.6945 11.4629 26.0193 11.7918 26.2815C12.1206 26.5438 12.4981 26.7383 12.9025 26.8539C13.3069 26.9695 13.7302 27.0039 14.148 26.9551C14.5658 26.9063 14.9697 26.7752 15.3366 26.5695C15.4056 25.8105 15.7446 25.101 16.2891 24.5685C12.9681 24.192 9.47607 22.908 9.47607 17.1735C9.45764 15.6903 10.0084 14.2564 11.0151 13.167C10.5596 11.876 10.6132 10.4599 11.1651 9.207C11.1651 9.207 12.4206 8.8035 15.2781 10.7385C17.7288 10.0665 20.3153 10.0665 22.7661 10.7385C25.6251 8.802 26.8791 9.207 26.8791 9.207C27.4341 10.4595 27.4866 11.877 27.0291 13.167C28.0394 14.2563 28.5897 15.694 28.5651 17.1795C28.5651 22.929 25.0701 24.192 21.7371 24.5625C22.4571 25.2975 22.8246 26.3055 22.7496 27.3315C22.7496 29.3325 22.7316 30.9465 22.7316 31.437C22.7316 31.8375 22.9986 32.3025 23.7621 32.1555C27.1321 31.0308 29.9919 28.7438 31.8299 25.7035C33.6679 22.6632 34.3642 19.0681 33.7941 15.5615C33.224 12.0548 31.4248 8.86544 28.7183 6.56398C26.0118 4.26253 22.5748 2.99919 19.0221 3Z" fill="#E3E3E3"/>
</svg>
