<svg width="37" height="36" viewBox="0 0 37 36" fill="none" xmlns="http://www.w3.org/2000/svg">
<path d="M18.9863 31.5618C15.2963 31.5618 14.8613 31.5423 13.4213 31.4793C12.2984 31.4424 11.19 31.2141 10.1438 30.8043C9.2486 30.4559 8.4356 29.9252 7.75646 29.2458C7.07732 28.5664 6.54688 27.7532 6.19883 26.8578C5.80479 25.8079 5.59225 24.6985 5.57033 23.5773C5.48633 22.1403 5.48633 21.6693 5.48633 18.0078C5.48633 14.3073 5.50583 13.8753 5.57033 12.4428C5.59273 11.3231 5.80526 10.2153 6.19883 9.16681C6.54648 8.27032 7.07728 7.45618 7.75732 6.77639C8.43736 6.09661 9.2517 5.56612 10.1483 5.21881C11.1963 4.82312 12.3043 4.61003 13.4243 4.58881C14.8568 4.50781 15.3278 4.50781 18.9863 4.50781C22.7063 4.50781 23.1338 4.52731 24.5513 4.58881C25.6733 4.60981 26.7863 4.82281 27.8363 5.21881C28.7327 5.56653 29.5469 6.09715 30.2268 6.77689C30.9068 7.45662 31.4378 8.27055 31.7858 9.16681C32.1863 10.2318 32.4008 11.3568 32.4173 12.4923C32.5013 13.9293 32.5013 14.3988 32.5013 18.0588C32.5013 21.7188 32.4803 22.1988 32.4173 23.6193C32.3949 24.7416 32.1819 25.8519 31.7873 26.9028C31.4384 27.7988 30.907 28.6124 30.2268 29.2921C29.5466 29.9718 28.7326 30.5026 27.8363 30.8508C26.7863 31.2438 25.6778 31.4568 24.5573 31.4793C23.1248 31.5618 22.6553 31.5618 18.9863 31.5618ZM18.9353 6.88231C15.2663 6.88231 14.8853 6.90031 13.4528 6.96481C12.5973 6.976 11.75 7.13378 10.9478 7.43131C10.3627 7.65559 9.83111 7.99998 9.38725 8.44228C8.9434 8.88459 8.59715 9.415 8.37083 9.99931C8.07083 10.8093 7.91333 11.6658 7.90433 12.5298C7.82483 13.9833 7.82483 14.3643 7.82483 18.0078C7.82483 21.6078 7.83833 22.0443 7.90433 23.4888C7.91783 24.3438 8.07533 25.1913 8.37083 25.9938C8.82983 27.1743 9.76583 28.1073 10.9493 28.5603C11.7505 28.8597 12.5976 29.0176 13.4528 29.0268C14.9048 29.1108 15.2873 29.1108 18.9353 29.1108C22.6148 29.1108 22.9958 29.0928 24.4163 29.0268C25.2719 29.0165 26.1194 28.8586 26.9213 28.5603C27.5033 28.3343 28.0319 27.9897 28.4735 27.5484C28.9151 27.107 29.26 26.5787 29.4863 25.9968C29.7863 25.1868 29.9438 24.3288 29.9528 23.4648H29.9693C30.0338 22.0308 30.0338 21.6483 30.0338 17.9838C30.0338 14.3193 30.0173 13.9338 29.9528 12.5013C29.9393 11.647 29.7815 10.8011 29.4863 9.99931C29.2605 9.41663 28.9158 8.88737 28.4742 8.44524C28.0326 8.00311 27.5037 7.6578 26.9213 7.43131C26.1195 7.13234 25.272 6.9745 24.4163 6.96481C22.9658 6.88231 22.5863 6.88231 18.9353 6.88231ZM18.9863 24.9363C17.6147 24.9372 16.2736 24.5313 15.1327 23.7699C13.9917 23.0086 13.1022 21.9259 12.5766 20.659C12.051 19.392 11.913 17.9977 12.1799 16.6523C12.4469 15.3069 13.1068 14.0708 14.0763 13.1005C15.0458 12.1302 16.2812 11.4692 17.6264 11.2011C18.9716 10.933 20.3661 11.0698 21.6335 11.5943C22.9009 12.1188 23.9843 13.0074 24.7466 14.1477C25.509 15.2879 25.916 16.6287 25.9163 18.0003C25.9139 19.8381 25.1833 21.6 23.8843 22.9001C22.5854 24.2001 20.8241 24.9323 18.9863 24.9363ZM18.9863 13.4973C18.0963 13.4973 17.2263 13.7612 16.4863 14.2557C15.7462 14.7502 15.1695 15.453 14.8289 16.2752C14.4883 17.0975 14.3992 18.0023 14.5728 18.8752C14.7464 19.7481 15.175 20.55 15.8043 21.1793C16.4337 21.8086 17.2355 22.2372 18.1084 22.4108C18.9813 22.5845 19.8861 22.4954 20.7084 22.1548C21.5307 21.8142 22.2335 21.2374 22.7279 20.4974C23.2224 19.7574 23.4863 18.8873 23.4863 17.9973C23.4836 16.8047 23.0086 15.6617 22.1652 14.8184C21.3219 13.9751 20.179 13.5001 18.9863 13.4973ZM26.1863 12.4278C25.974 12.427 25.7639 12.3844 25.568 12.3024C25.3721 12.2204 25.1943 12.1007 25.0447 11.95C24.7426 11.6456 24.5737 11.2337 24.5753 10.8048C24.5769 10.376 24.7488 9.9653 25.0532 9.66318C25.3576 9.36106 25.7695 9.19222 26.1983 9.19381C26.6272 9.1954 27.0378 9.36729 27.34 9.67166C27.6421 9.97604 27.8109 10.388 27.8093 10.8168C27.8077 11.2457 27.6359 11.6563 27.3315 11.9584C27.0271 12.2606 26.6152 12.4294 26.1863 12.4278Z" fill="#E3E3E3"/>
</svg>
