<svg width="108" height="20" viewBox="0 0 108 20" fill="none" xmlns="http://www.w3.org/2000/svg">
<path d="M10.3434 14.8955L14.2809 17.3955C14.7887 17.7158 15.4137 17.2393 15.2653 16.6533L14.1246 12.169C14.0938 12.0447 14.0987 11.9142 14.1388 11.7925C14.1789 11.6709 14.2525 11.5631 14.3512 11.4815L17.8824 8.53615C18.3434 8.15334 18.109 7.3799 17.5074 7.34084L12.8981 7.04396C12.7723 7.03665 12.6514 6.99285 12.5501 6.91793C12.4488 6.84301 12.3716 6.74021 12.3278 6.62209L10.609 2.29396C10.5635 2.16889 10.4806 2.06084 10.3716 1.98449C10.2626 1.90814 10.1327 1.86719 9.99963 1.86719C9.86654 1.86719 9.73667 1.90814 9.62765 1.98449C9.51863 2.06084 9.43575 2.16889 9.39025 2.29396L7.6715 6.62209C7.6277 6.74021 7.55044 6.84301 7.44915 6.91793C7.34787 6.99285 7.22696 7.03665 7.10119 7.04396L2.49182 7.34084C1.89026 7.3799 1.65588 8.15334 2.11682 8.53615L5.64807 11.4815C5.74677 11.5631 5.8204 11.6709 5.86048 11.7925C5.90057 11.9142 5.90547 12.0447 5.87463 12.169L4.81994 16.3252C4.64026 17.0283 5.39026 17.5987 5.99182 17.2158L9.65588 14.8955C9.75863 14.8302 9.87787 14.7955 9.99963 14.7955C10.1214 14.7955 10.2406 14.8302 10.3434 14.8955Z" fill="#FF900D"/>
<path d="M32.3434 14.8955L36.2809 17.3955C36.7887 17.7158 37.4137 17.2393 37.2653 16.6533L36.1246 12.169C36.0938 12.0447 36.0987 11.9142 36.1388 11.7925C36.1789 11.6709 36.2525 11.5631 36.3512 11.4815L39.8824 8.53615C40.3434 8.15334 40.109 7.3799 39.5074 7.34084L34.8981 7.04396C34.7723 7.03665 34.6514 6.99285 34.5501 6.91793C34.4488 6.84301 34.3716 6.74021 34.3278 6.62209L32.609 2.29396C32.5635 2.16889 32.4806 2.06084 32.3716 1.98449C32.2626 1.90814 32.1327 1.86719 31.9996 1.86719C31.8665 1.86719 31.7367 1.90814 31.6277 1.98449C31.5186 2.06084 31.4358 2.16889 31.3903 2.29396L29.6715 6.62209C29.6277 6.74021 29.5504 6.84301 29.4492 6.91793C29.3479 6.99285 29.227 7.03665 29.1012 7.04396L24.4918 7.34084C23.8903 7.3799 23.6559 8.15334 24.1168 8.53615L27.6481 11.4815C27.7468 11.5631 27.8204 11.6709 27.8605 11.7925C27.9006 11.9142 27.9055 12.0447 27.8746 12.169L26.8199 16.3252C26.6403 17.0283 27.3903 17.5987 27.9918 17.2158L31.6559 14.8955C31.7586 14.8302 31.8779 14.7955 31.9996 14.7955C32.1214 14.7955 32.2406 14.8302 32.3434 14.8955Z" fill="#FF900D"/>
<path d="M54.3434 14.8955L58.2809 17.3955C58.7887 17.7158 59.4137 17.2393 59.2653 16.6533L58.1246 12.169C58.0938 12.0447 58.0987 11.9142 58.1388 11.7925C58.1789 11.6709 58.2525 11.5631 58.3512 11.4815L61.8824 8.53615C62.3434 8.15334 62.109 7.3799 61.5074 7.34084L56.8981 7.04396C56.7723 7.03665 56.6514 6.99285 56.5501 6.91793C56.4488 6.84301 56.3716 6.74021 56.3278 6.62209L54.609 2.29396C54.5635 2.16889 54.4806 2.06084 54.3716 1.98449C54.2626 1.90814 54.1327 1.86719 53.9996 1.86719C53.8665 1.86719 53.7367 1.90814 53.6277 1.98449C53.5186 2.06084 53.4358 2.16889 53.3903 2.29396L51.6715 6.62209C51.6277 6.74021 51.5504 6.84301 51.4492 6.91793C51.3479 6.99285 51.227 7.03665 51.1012 7.04396L46.4918 7.34084C45.8903 7.3799 45.6559 8.15334 46.1168 8.53615L49.6481 11.4815C49.7468 11.5631 49.8204 11.6709 49.8605 11.7925C49.9006 11.9142 49.9055 12.0447 49.8746 12.169L48.8199 16.3252C48.6403 17.0283 49.3903 17.5987 49.9918 17.2158L53.6559 14.8955C53.7586 14.8302 53.8779 14.7955 53.9996 14.7955C54.1214 14.7955 54.2406 14.8302 54.3434 14.8955Z" fill="#FF900D"/>
<path d="M76.3434 14.8955L80.2809 17.3955C80.7887 17.7158 81.4137 17.2393 81.2653 16.6533L80.1246 12.169C80.0938 12.0447 80.0987 11.9142 80.1388 11.7925C80.1789 11.6709 80.2525 11.5631 80.3512 11.4815L83.8824 8.53615C84.3434 8.15334 84.109 7.3799 83.5074 7.34084L78.8981 7.04396C78.7723 7.03665 78.6514 6.99285 78.5501 6.91793C78.4488 6.84301 78.3716 6.74021 78.3278 6.62209L76.609 2.29396C76.5635 2.16889 76.4806 2.06084 76.3716 1.98449C76.2626 1.90814 76.1327 1.86719 75.9996 1.86719C75.8665 1.86719 75.7367 1.90814 75.6277 1.98449C75.5186 2.06084 75.4358 2.16889 75.3903 2.29396L73.6715 6.62209C73.6277 6.74021 73.5504 6.84301 73.4492 6.91793C73.3479 6.99285 73.227 7.03665 73.1012 7.04396L68.4918 7.34084C67.8903 7.3799 67.6559 8.15334 68.1168 8.53615L71.6481 11.4815C71.7468 11.5631 71.8204 11.6709 71.8605 11.7925C71.9006 11.9142 71.9055 12.0447 71.8746 12.169L70.8199 16.3252C70.6403 17.0283 71.3903 17.5987 71.9918 17.2158L75.6559 14.8955C75.7586 14.8302 75.8779 14.7955 75.9996 14.7955C76.1214 14.7955 76.2406 14.8302 76.3434 14.8955Z" fill="#FF900D"/>
<path d="M98.3434 14.8955L102.281 17.3955C102.789 17.7158 103.414 17.2393 103.265 16.6533L102.125 12.169C102.094 12.0447 102.099 11.9142 102.139 11.7925C102.179 11.6709 102.252 11.5631 102.351 11.4815L105.882 8.53615C106.343 8.15334 106.109 7.3799 105.507 7.34084L100.898 7.04396C100.772 7.03665 100.651 6.99285 100.55 6.91793C100.449 6.84301 100.372 6.74021 100.328 6.62209L98.609 2.29396C98.5635 2.16889 98.4806 2.06084 98.3716 1.98449C98.2626 1.90814 98.1327 1.86719 97.9996 1.86719C97.8665 1.86719 97.7367 1.90814 97.6277 1.98449C97.5186 2.06084 97.4358 2.16889 97.3903 2.29396L95.6715 6.62209C95.6277 6.74021 95.5504 6.84301 95.4492 6.91793C95.3479 6.99285 95.227 7.03665 95.1012 7.04396L90.4918 7.34084C89.8903 7.3799 89.6559 8.15334 90.1168 8.53615L93.6481 11.4815C93.7468 11.5631 93.8204 11.6709 93.8605 11.7925C93.9006 11.9142 93.9055 12.0447 93.8746 12.169L92.8199 16.3252C92.6403 17.0283 93.3903 17.5987 93.9918 17.2158L97.6559 14.8955C97.7586 14.8302 97.8779 14.7955 97.9996 14.7955C98.1214 14.7955 98.2406 14.8302 98.3434 14.8955Z" fill="#FF900D"/>
</svg>
