<svg width="32" height="26" viewBox="0 0 32 26" fill="none" xmlns="http://www.w3.org/2000/svg">
<path d="M27.9759 4.03422C29.3206 3.23035 30.3267 1.96457 30.8064 0.473218C29.5429 1.22295 28.1605 1.75106 26.7189 2.03472C25.7467 1.00624 24.4631 0.326096 23.0662 0.0991208C21.6692 -0.127855 20.2364 0.110942 18.9885 0.778702C17.7407 1.44646 16.7471 2.50611 16.1609 3.79431C15.5748 5.08251 15.4286 6.52774 15.7449 7.90722C13.1857 7.77874 10.6822 7.11353 8.39675 5.95479C6.11131 4.79605 4.09508 3.16967 2.47892 1.18122C1.65702 2.59887 1.40551 4.27621 1.77549 5.87258C2.14547 7.46895 3.10919 8.86465 4.47092 9.77622C3.44899 9.74337 2.44971 9.46667 1.55642 8.96922V9.05022C1.55671 10.5367 2.07112 11.9773 3.01242 13.1277C3.95371 14.2782 5.26395 15.0676 6.72092 15.3622C5.77302 15.6201 4.77873 15.6581 3.81392 15.4732C4.22602 16.7517 5.02698 17.8696 6.10503 18.671C7.18308 19.4723 8.48442 19.9171 9.82742 19.9432C7.54717 21.7329 4.73114 22.7035 1.83242 22.6987C1.31792 22.6987 0.804922 22.6687 0.294922 22.6102C3.23854 24.5017 6.66449 25.5057 10.1634 25.5022C12.5733 25.5188 14.9625 25.0563 17.1922 24.1416C19.4218 23.227 21.4475 21.8784 23.1515 20.1742C24.8555 18.4701 26.204 16.4443 27.1184 14.2146C28.0329 11.9848 28.4952 9.59562 28.4784 7.18572C28.4784 6.90672 28.4724 6.62922 28.4589 6.35322C29.7196 5.44215 30.8077 4.31346 31.6719 3.02022C30.4974 3.54079 29.2516 3.88258 27.9759 4.03422Z" fill="#E3E3E3"/>
</svg>
