<svg width="31" height="30" viewBox="0 0 31 30" fill="none" xmlns="http://www.w3.org/2000/svg">
<path d="M15.9834 30C7.6989 30 0.983398 23.2845 0.983398 15C0.983398 6.7155 7.6989 0 15.9834 0C24.2679 0 30.9834 6.7155 30.9834 15C30.9744 23.28 24.2634 29.991 15.9834 30ZM8.1939 12.8145C7.69437 12.8148 7.20996 12.9858 6.821 13.2993C6.43205 13.6127 6.16193 14.0497 6.05546 14.5377C5.94899 15.0258 6.01257 15.5355 6.23564 15.9825C6.45871 16.4294 6.82788 16.7867 7.2819 16.995C7.26306 17.2141 7.26306 17.4344 7.2819 17.6535C7.2819 21.0135 11.2044 23.7465 16.0254 23.7465C20.8464 23.7465 24.7704 21.0135 24.7704 17.6535C24.7878 17.4343 24.7878 17.2142 24.7704 16.995C25.2124 16.7803 25.568 16.4213 25.7786 15.9774C25.9893 15.5335 26.0424 15.031 25.9292 14.5528C25.8159 14.0747 25.5432 13.6494 25.1559 13.347C24.7685 13.0446 24.2897 12.8833 23.7984 12.8895H23.7189C23.1816 12.9094 22.6704 13.1267 22.2834 13.5C20.5772 12.3398 18.5713 11.6989 16.5084 11.655L17.4834 6.975L20.6904 7.65C20.7334 8.04541 20.9317 8.40755 21.2417 8.65678C21.5517 8.906 21.948 9.0219 22.3434 8.979C22.7263 8.94056 23.0798 8.75641 23.3308 8.46463C23.5818 8.17286 23.711 7.79578 23.6917 7.41141C23.6724 7.02703 23.5062 6.66477 23.2273 6.39955C22.9484 6.13433 22.5783 5.98645 22.1934 5.9865C22.1367 5.98721 22.08 5.99172 22.0239 6C21.7895 6.0249 21.5642 6.1047 21.3664 6.23292C21.1686 6.36114 21.0038 6.53418 20.8854 6.738L17.2134 6C17.0935 5.97503 16.9686 5.99836 16.8658 6.06492C16.763 6.13147 16.6907 6.23589 16.6644 6.3555L15.5424 11.565C13.4541 11.5946 11.4203 12.2355 9.6924 13.4085C9.28741 13.0259 8.75104 12.8133 8.1939 12.8145ZM16.2534 21.786H15.7464C14.5015 21.7812 13.2915 21.3746 12.2964 20.6265C12.2293 20.5495 12.1938 20.4499 12.1973 20.3478C12.2007 20.2457 12.2427 20.1487 12.3148 20.0764C12.387 20.0041 12.4839 19.9618 12.586 19.9581C12.688 19.9544 12.7877 19.9896 12.8649 20.0565C13.7049 20.6715 14.7219 21.003 15.7644 21H16.2504C17.2794 21.0016 18.2828 20.6794 19.1184 20.079C19.1575 20.0391 19.2042 20.0074 19.2557 19.9857C19.3072 19.9641 19.3625 19.9529 19.4184 19.9529C19.4743 19.9529 19.5296 19.9641 19.5811 19.9857C19.6326 20.0074 19.6793 20.0391 19.7184 20.079C19.7966 20.1598 19.8396 20.2682 19.8382 20.3805C19.8368 20.4929 19.791 20.6002 19.7109 20.679V20.619C18.7153 21.3722 17.5018 21.7813 16.2534 21.7845V21.786ZM19.4439 18.12H19.4199L19.4319 18.0615C19.1116 18.0396 18.8085 17.909 18.5726 17.6913C18.3367 17.4736 18.1822 17.1818 18.1348 16.8643C18.0874 16.5469 18.1498 16.2227 18.3118 15.9456C18.4738 15.6684 18.7256 15.4549 19.0255 15.3404C19.3254 15.2259 19.6554 15.2173 19.9608 15.316C20.2663 15.4147 20.5289 15.6147 20.7051 15.883C20.8813 16.1513 20.9606 16.4718 20.9299 16.7913C20.8991 17.1108 20.7601 17.4103 20.5359 17.64C20.4029 17.7851 20.2424 17.9023 20.0637 17.9847C19.885 18.0671 19.6916 18.1131 19.4949 18.12H19.4424H19.4439ZM12.4884 18C12.0906 18 11.709 17.842 11.4277 17.5607C11.1464 17.2794 10.9884 16.8978 10.9884 16.5C10.9884 16.1022 11.1464 15.7206 11.4277 15.4393C11.709 15.158 12.0906 15 12.4884 15C12.8862 15 13.2678 15.158 13.5491 15.4393C13.8304 15.7206 13.9884 16.1022 13.9884 16.5C13.9884 16.8978 13.8304 17.2794 13.5491 17.5607C13.2678 17.842 12.8862 18 12.4884 18Z" fill="#E3E3E3"/>
</svg>
