<svg width="18" height="18" viewBox="0 0 18 18" fill="none" xmlns="http://www.w3.org/2000/svg">
<path d="M0.548828 17.9378H17.4488C17.5814 17.9378 17.7086 17.8851 17.8024 17.7913C17.8962 17.6976 17.9488 17.5704 17.9488 17.4378C17.9488 17.3052 17.8962 17.178 17.8024 17.0842C17.7086 16.9905 17.5814 16.9378 17.4488 16.9378H0.548828C0.41622 16.9378 0.289043 16.9905 0.195275 17.0842C0.101506 17.178 0.0488281 17.3052 0.0488281 17.4378C0.0488281 17.5704 0.101506 17.6976 0.195275 17.7913C0.289043 17.8851 0.41622 17.9378 0.548828 17.9378ZM6.71083 14.1798C7.13323 14.0616 7.51864 13.8379 7.83083 13.5298L17.3708 3.98978C17.6975 3.66179 17.881 3.21771 17.881 2.75478C17.881 2.29184 17.6975 1.84777 17.3708 1.51978L16.4308 0.589777C16.0982 0.272032 15.6559 0.0947266 15.1958 0.0947266C14.7358 0.0947266 14.2935 0.272032 13.9608 0.589777L4.42083 10.1198C4.11217 10.4299 3.89132 10.8164 3.78083 11.2398L3.04083 13.9998C3.00572 14.1259 3.00482 14.259 3.03821 14.3855C3.0716 14.5121 3.13808 14.6274 3.23083 14.7198C3.37237 14.8589 3.56235 14.9378 3.76083 14.9398L6.71083 14.1798ZM7.12083 12.8198C6.93648 13.0075 6.70507 13.1422 6.45083 13.2098L5.48083 13.4698L4.48083 12.4698L4.74083 11.4998C4.81077 11.2465 4.94514 11.0157 5.13083 10.8298L5.51083 10.4598L7.50083 12.4498L7.12083 12.8198ZM8.21083 11.7398L6.22083 9.74978L12.9508 3.01978L14.9408 5.00978L8.21083 11.7398ZM16.6608 3.28978L15.6508 4.29978L13.6608 2.30978L14.6708 1.28978C14.7403 1.21999 14.8229 1.16462 14.9139 1.12684C15.0048 1.08906 15.1023 1.06961 15.2008 1.06961C15.2993 1.06961 15.3968 1.08906 15.4878 1.12684C15.5787 1.16462 15.6613 1.21999 15.7308 1.28978L16.6608 2.22978C16.8003 2.37091 16.8785 2.56135 16.8785 2.75978C16.8785 2.95821 16.8003 3.14864 16.6608 3.28978Z" fill="#636363"/>
</svg>
