<svg width="23" height="20" viewBox="0 0 23 20" fill="none" xmlns="http://www.w3.org/2000/svg">
<path d="M20.1706 6.30709L6.00534 4.81084L5.14184 1.68775C5.11183 1.583 5.04673 1.49051 4.95648 1.42439C4.86623 1.35827 4.7558 1.32216 4.64203 1.32156H2.51559C2.43874 1.22281 2.33897 1.14239 2.22411 1.0866C2.10924 1.03081 1.9824 1.00117 1.85353 1C1.62716 1 1.41006 1.08584 1.24999 1.23863C1.08993 1.39142 1 1.59865 1 1.81473C1 2.03082 1.08993 2.23805 1.24999 2.39084C1.41006 2.54363 1.62716 2.62947 1.85353 2.62947C2.12853 2.62947 2.36091 2.49822 2.51697 2.30659H4.24397L7.83959 15.3003C7.44737 15.6989 7.22863 16.2249 7.22772 16.7717C7.22745 17.0555 7.2858 17.3365 7.39943 17.5988C7.51307 17.8611 7.67976 18.0994 7.88996 18.3001C8.10017 18.5008 8.34977 18.66 8.62449 18.7685C8.8992 18.8771 9.19365 18.9329 9.49097 18.9327C10.0917 18.9329 10.6679 18.7053 11.093 18.3001C11.518 17.8949 11.7571 17.3451 11.7577 16.7717C11.7565 16.6073 11.735 16.4436 11.6937 16.2841H15.4977C15.457 16.4437 15.4357 16.6073 15.4344 16.7717C15.4344 17.966 16.4492 18.9327 17.7004 18.9327C18.9517 18.9327 19.9643 17.966 19.9643 16.7717C19.9645 16.1981 19.7261 15.648 19.3014 15.2422C18.8767 14.8365 18.3006 14.6083 17.6997 14.608C17.0466 14.608 16.4622 14.8771 16.0483 15.299H11.1423C10.9318 15.0815 10.6764 14.9078 10.3923 14.7889C10.1081 14.67 9.80125 14.6084 9.49097 14.608C9.22972 14.608 8.98359 14.6592 8.75053 14.7366L8.62541 14.2864H18.6512C19.0365 14.2789 19.408 14.148 19.706 13.9147C20.004 13.6815 20.2112 13.3594 20.2943 13.0002L21.3772 7.88275C21.3954 7.79324 21.4046 7.70226 21.4047 7.61106C21.4052 7.28621 21.2792 6.97278 21.0511 6.73167C20.823 6.49057 20.5092 6.33966 20.1706 6.30709ZM17.7011 16.9646C17.6472 16.9644 17.5956 16.944 17.5574 16.9078C17.5192 16.8716 17.4974 16.8224 17.4969 16.771C17.499 16.6621 17.5897 16.5754 17.7018 16.5754C17.8138 16.5754 17.9046 16.6621 17.906 16.7703C17.9052 16.8216 17.8834 16.8706 17.8452 16.9067C17.807 16.9428 17.7555 16.9631 17.7018 16.9633L17.7011 16.9646ZM18.9248 12.046L19.5766 11.4226L19.358 12.4594L18.9248 12.046ZM8.98841 6.11547L9.69997 6.79666L8.81309 7.64322L7.92416 6.79666L8.67147 6.08266L8.98841 6.11547ZM12.0808 6.44228L12.4507 6.79666L11.5638 7.64322L10.6748 6.79666L11.1478 6.34384L12.0808 6.44228ZM6.83997 7.83091L7.43809 7.26128L8.32497 8.10916L7.43809 8.95572L7.04966 8.58625L6.84066 7.83025L6.83997 7.83091ZM6.63716 7.09591L6.41166 6.28216L6.95134 6.79731L6.63716 7.09591ZM15.2 9.42166L14.3131 10.2682L13.4242 9.42166L14.3124 8.57312L15.2 9.42166ZM14.7992 8.10916L15.6874 7.26128L16.5743 8.10916L15.6874 8.95703L14.7992 8.10916ZM12.9381 8.95572L12.0492 8.10916L12.9374 7.26062L13.8243 8.1085L12.9381 8.95572ZM12.45 9.42166L11.5631 10.2682L10.6748 9.42166L11.5631 8.57312L12.45 9.42166ZM10.1881 8.95572L9.29916 8.10916L10.1874 7.26062L11.0743 8.1085L10.1881 8.95572ZM9.69997 9.42166L8.81309 10.2682L7.92416 9.42166L8.81241 8.57312L9.69997 9.42166ZM7.43809 9.88563L8.32497 10.7335L7.78597 11.2473L7.41472 9.90597L7.43741 9.88431L7.43809 9.88563ZM7.98947 11.9837L8.81241 11.1981L9.69928 12.046L8.81241 12.8926L8.03553 12.151L7.98947 11.9837ZM9.29984 10.7335L10.1867 9.88497L11.0757 10.7328L10.1888 11.5794L9.30053 10.7328L9.29984 10.7335ZM11.5631 11.1975L12.4513 12.0453L11.5631 12.8919L10.6748 12.0453L11.5631 11.1975ZM12.0498 10.7328L12.9381 9.88431L13.825 10.7322L12.9381 11.5788L12.0498 10.7328ZM14.3117 11.1968L15.2007 12.0447L14.3138 12.8913L13.4255 12.0434L14.3117 11.1968ZM14.7998 10.7322L15.6867 9.88366L16.5757 10.7315L15.6888 11.5781L14.7998 10.7322ZM16.1748 9.41969L17.0617 8.57116L17.9507 9.41903L17.0638 10.2656L16.1748 9.41969ZM17.5498 8.10719L18.4367 7.25866L19.325 8.10916L18.4381 8.95703L17.5492 8.1085L17.5498 8.10719ZM17.0617 7.64256L16.2677 6.88394L17.699 7.03487L17.0617 7.64256ZM15.2013 6.79666L14.3145 7.64453L13.4255 6.79666L13.6249 6.60634L15.1738 6.77041L15.2013 6.79666ZM10.1895 6.33072L10.085 6.23228L10.2727 6.25197L10.1902 6.33072H10.1895ZM7.43947 6.33203L6.99259 5.90547L7.79697 5.99078L7.43947 6.33203ZM10.1895 12.5106L11.0179 13.3014H9.36103L10.1895 12.5106ZM12.9395 12.5106L13.7679 13.3021H12.1097L12.9395 12.5106ZM15.6895 12.5106L16.5193 13.3027H14.8597L15.6895 12.5106ZM16.1755 12.046L17.0638 11.1975L17.9507 12.0453L17.0638 12.8919L16.1755 12.046ZM17.5505 10.7335L18.4388 9.88563L19.3257 10.7322L18.4388 11.5807L17.5498 10.7342L17.5505 10.7335ZM19.8138 10.2676L18.9255 9.421L19.8124 8.57312L20.1183 8.8645L19.8227 10.2584L19.8131 10.2682L19.8138 10.2676ZM20.1575 7.31444L19.8138 7.64256L19.36 7.21141L20.0592 7.28491C20.0963 7.29016 20.128 7.30197 20.1582 7.31378L20.1575 7.31444ZM9.49234 16.9639C9.44033 16.9611 9.39143 16.9393 9.35568 16.9031C9.31992 16.8669 9.3 16.8191 9.3 16.7694C9.3 16.7196 9.31992 16.6718 9.35568 16.6356C9.39143 16.5994 9.44033 16.5777 9.49234 16.5748C9.54418 16.5777 9.5929 16.5993 9.62854 16.6354C9.66417 16.6714 9.68402 16.7191 9.68402 16.7687C9.68402 16.8183 9.66417 16.866 9.62854 16.902C9.5929 16.9381 9.54418 16.9597 9.49234 16.9626V16.9639ZM18.6519 13.3021H17.609L18.4388 12.51L19.0782 13.1203C18.9496 13.2318 18.7873 13.3106 18.6519 13.3021Z" fill="white"/>
</svg>
