<svg width="108" height="20" viewBox="0 0 108 20" fill="none" xmlns="http://www.w3.org/2000/svg">
<path d="M10.3444 14.8985L14.2819 17.3985C14.7897 17.7188 15.4147 17.2422 15.2662 16.6563L14.1256 12.1719C14.0948 12.0476 14.0997 11.9171 14.1398 11.7955C14.1798 11.6738 14.2535 11.566 14.3522 11.4844L17.8834 8.53908C18.3444 8.15627 18.11 7.38283 17.5084 7.34377L12.899 7.04689C12.7733 7.03958 12.6524 6.99578 12.5511 6.92086C12.4498 6.84594 12.3725 6.74314 12.3287 6.62502L10.61 2.29689C10.5645 2.17182 10.4816 2.06377 10.3726 1.98742C10.2636 1.91107 10.1337 1.87012 10.0006 1.87012C9.86751 1.87012 9.73764 1.91107 9.62863 1.98742C9.51961 2.06377 9.43673 2.17182 9.39123 2.29689L7.67248 6.62502C7.62868 6.74314 7.55141 6.84594 7.45013 6.92086C7.34885 6.99578 7.22794 7.03958 7.10217 7.04689L2.49279 7.34377C1.89123 7.38283 1.65686 8.15627 2.11779 8.53908L5.64904 11.4844C5.74774 11.566 5.82138 11.6738 5.86146 11.7955C5.90155 11.9171 5.90645 12.0476 5.87561 12.1719L4.82092 16.3281C4.64123 17.0313 5.39123 17.6016 5.99279 17.2188L9.65686 14.8985C9.7596 14.8331 9.87885 14.7984 10.0006 14.7984C10.1224 14.7984 10.2416 14.8331 10.3444 14.8985Z" fill="#FF900D"/>
<path d="M32.3444 14.8985L36.2819 17.3985C36.7897 17.7188 37.4147 17.2422 37.2662 16.6563L36.1256 12.1719C36.0948 12.0476 36.0997 11.9171 36.1398 11.7955C36.1798 11.6738 36.2535 11.566 36.3522 11.4844L39.8834 8.53908C40.3444 8.15627 40.11 7.38283 39.5084 7.34377L34.899 7.04689C34.7733 7.03958 34.6524 6.99578 34.5511 6.92086C34.4498 6.84594 34.3725 6.74314 34.3287 6.62502L32.61 2.29689C32.5645 2.17182 32.4816 2.06377 32.3726 1.98742C32.2636 1.91107 32.1337 1.87012 32.0006 1.87012C31.8675 1.87012 31.7376 1.91107 31.6286 1.98742C31.5196 2.06377 31.4367 2.17182 31.3912 2.29689L29.6725 6.62502C29.6287 6.74314 29.5514 6.84594 29.4501 6.92086C29.3488 6.99578 29.2279 7.03958 29.1022 7.04689L24.4928 7.34377C23.8912 7.38283 23.6569 8.15627 24.1178 8.53908L27.649 11.4844C27.7477 11.566 27.8214 11.6738 27.8615 11.7955C27.9015 11.9171 27.9064 12.0476 27.8756 12.1719L26.8209 16.3281C26.6412 17.0313 27.3912 17.6016 27.9928 17.2188L31.6569 14.8985C31.7596 14.8331 31.8788 14.7984 32.0006 14.7984C32.1224 14.7984 32.2416 14.8331 32.3444 14.8985Z" fill="#FF900D"/>
<path d="M54.3444 14.8985L58.2819 17.3985C58.7897 17.7188 59.4147 17.2422 59.2662 16.6563L58.1256 12.1719C58.0948 12.0476 58.0997 11.9171 58.1398 11.7955C58.1798 11.6738 58.2535 11.566 58.3522 11.4844L61.8834 8.53908C62.3444 8.15627 62.11 7.38283 61.5084 7.34377L56.899 7.04689C56.7733 7.03958 56.6524 6.99578 56.5511 6.92086C56.4498 6.84594 56.3725 6.74314 56.3287 6.62502L54.61 2.29689C54.5645 2.17182 54.4816 2.06377 54.3726 1.98742C54.2636 1.91107 54.1337 1.87012 54.0006 1.87012C53.8675 1.87012 53.7376 1.91107 53.6286 1.98742C53.5196 2.06377 53.4367 2.17182 53.3912 2.29689L51.6725 6.62502C51.6287 6.74314 51.5514 6.84594 51.4501 6.92086C51.3488 6.99578 51.2279 7.03958 51.1022 7.04689L46.4928 7.34377C45.8912 7.38283 45.6569 8.15627 46.1178 8.53908L49.649 11.4844C49.7477 11.566 49.8214 11.6738 49.8615 11.7955C49.9015 11.9171 49.9064 12.0476 49.8756 12.1719L48.8209 16.3281C48.6412 17.0313 49.3912 17.6016 49.9928 17.2188L53.6569 14.8985C53.7596 14.8331 53.8788 14.7984 54.0006 14.7984C54.1224 14.7984 54.2416 14.8331 54.3444 14.8985Z" fill="#FF900D"/>
<path d="M76.3444 14.8985L80.2819 17.3985C80.7897 17.7188 81.4147 17.2422 81.2662 16.6563L80.1256 12.1719C80.0948 12.0476 80.0997 11.9171 80.1398 11.7955C80.1798 11.6738 80.2535 11.566 80.3522 11.4844L83.8834 8.53908C84.3444 8.15627 84.11 7.38283 83.5084 7.34377L78.899 7.04689C78.7733 7.03958 78.6524 6.99578 78.5511 6.92086C78.4498 6.84594 78.3725 6.74314 78.3287 6.62502L76.61 2.29689C76.5645 2.17182 76.4816 2.06377 76.3726 1.98742C76.2636 1.91107 76.1337 1.87012 76.0006 1.87012C75.8675 1.87012 75.7376 1.91107 75.6286 1.98742C75.5196 2.06377 75.4367 2.17182 75.3912 2.29689L73.6725 6.62502C73.6287 6.74314 73.5514 6.84594 73.4501 6.92086C73.3488 6.99578 73.2279 7.03958 73.1022 7.04689L68.4928 7.34377C67.8912 7.38283 67.6569 8.15627 68.1178 8.53908L71.649 11.4844C71.7477 11.566 71.8214 11.6738 71.8615 11.7955C71.9015 11.9171 71.9064 12.0476 71.8756 12.1719L70.8209 16.3281C70.6412 17.0313 71.3912 17.6016 71.9928 17.2188L75.6569 14.8985C75.7596 14.8331 75.8788 14.7984 76.0006 14.7984C76.1224 14.7984 76.2416 14.8331 76.3444 14.8985Z" fill="#FF900D"/>
<path d="M98.3444 14.8985L102.282 17.3985C102.79 17.7188 103.415 17.2422 103.266 16.6563L102.126 12.1719C102.095 12.0476 102.1 11.9171 102.14 11.7955C102.18 11.6738 102.253 11.566 102.352 11.4844L105.883 8.53908C106.344 8.15627 106.11 7.38283 105.508 7.34377L100.899 7.04689C100.773 7.03958 100.652 6.99578 100.551 6.92086C100.45 6.84594 100.373 6.74314 100.329 6.62502L98.61 2.29689C98.5645 2.17182 98.4816 2.06377 98.3726 1.98742C98.2636 1.91107 98.1337 1.87012 98.0006 1.87012C97.8675 1.87012 97.7376 1.91107 97.6286 1.98742C97.5196 2.06377 97.4367 2.17182 97.3912 2.29689L95.6725 6.62502C95.6287 6.74314 95.5514 6.84594 95.4501 6.92086C95.3488 6.99578 95.2279 7.03958 95.1022 7.04689L90.4928 7.34377C89.8912 7.38283 89.6569 8.15627 90.1178 8.53908L93.649 11.4844C93.7477 11.566 93.8214 11.6738 93.8615 11.7955C93.9015 11.9171 93.9064 12.0476 93.8756 12.1719L92.8209 16.3281C92.6412 17.0313 93.3912 17.6016 93.9928 17.2188L97.6569 14.8985C97.7596 14.8331 97.8788 14.7984 98.0006 14.7984C98.1224 14.7984 98.2416 14.8331 98.3444 14.8985Z" fill="#FF900D"/>
</svg>
