<svg width="254" height="58" viewBox="0 0 254 58" fill="none" xmlns="http://www.w3.org/2000/svg">
<path d="M25.5117 40L23.5566 34.4492H15.9141L13.959 40H10.5L17.9375 19.9297H21.5742L28.998 40H25.5117ZM22.709 31.6328L20.8086 26.1641C20.7357 25.9271 20.6309 25.5944 20.4941 25.166C20.3574 24.7285 20.2207 24.2865 20.084 23.8398C19.9473 23.3841 19.8333 23.0013 19.7422 22.6914C19.651 23.0651 19.5371 23.4844 19.4004 23.9492C19.2728 24.4049 19.1452 24.8333 19.0176 25.2344C18.8991 25.6354 18.8079 25.9453 18.7441 26.1641L16.8301 31.6328H22.709ZM38.8691 27.3125H35.1914V40H31.9785V27.3125H29.5039V25.7676L31.9785 24.8242V23.7715C31.9785 22.4863 32.179 21.4655 32.5801 20.709C32.9902 19.9525 33.5736 19.4102 34.3301 19.082C35.0957 18.7448 36.0072 18.5762 37.0645 18.5762C37.7572 18.5762 38.3906 18.6354 38.9648 18.7539C39.5391 18.8633 40.0221 18.9909 40.4141 19.1367L39.5801 21.5703C39.2702 21.4701 38.9238 21.3789 38.541 21.2969C38.1582 21.2057 37.748 21.1602 37.3105 21.1602C36.5814 21.1602 36.0436 21.388 35.6973 21.8438C35.36 22.2995 35.1914 22.9648 35.1914 23.8398V24.8652H38.8691V27.3125ZM49.123 24.5781C49.3783 24.5781 49.6562 24.5918 49.957 24.6191C50.2578 24.6465 50.5176 24.6829 50.7363 24.7285L50.4355 27.7363C50.2441 27.6816 50.0072 27.6406 49.7246 27.6133C49.4512 27.5859 49.2051 27.5723 48.9863 27.5723C48.4121 27.5723 47.8652 27.668 47.3457 27.8594C46.8262 28.0417 46.3659 28.3242 45.9648 28.707C45.5638 29.0807 45.2493 29.5501 45.0215 30.1152C44.7936 30.6803 44.6797 31.3366 44.6797 32.084V40H41.4531V24.8652H43.9688L44.4062 27.5312H44.5566C44.8574 26.9935 45.2311 26.5013 45.6777 26.0547C46.1243 25.6081 46.6348 25.2526 47.209 24.9883C47.7923 24.7148 48.4303 24.5781 49.123 24.5781ZM66.9375 32.3984C66.9375 33.6562 66.7734 34.7728 66.4453 35.748C66.1172 36.7233 65.6387 37.5482 65.0098 38.2227C64.3809 38.888 63.6243 39.3984 62.7402 39.7539C61.8561 40.1003 60.8581 40.2734 59.7461 40.2734C58.707 40.2734 57.7546 40.1003 56.8887 39.7539C56.0228 39.3984 55.2708 38.888 54.6328 38.2227C54.0039 37.5482 53.5163 36.7233 53.1699 35.748C52.8236 34.7728 52.6504 33.6562 52.6504 32.3984C52.6504 30.7305 52.9375 29.3177 53.5117 28.1602C54.0951 26.9935 54.9245 26.1048 56 25.4941C57.0755 24.8835 58.3561 24.5781 59.8418 24.5781C61.2363 24.5781 62.4668 24.8835 63.5332 25.4941C64.5996 26.1048 65.4336 26.9935 66.0352 28.1602C66.6367 29.3268 66.9375 30.7396 66.9375 32.3984ZM55.959 32.3984C55.959 33.5013 56.0911 34.4447 56.3555 35.2285C56.6289 36.0124 57.0482 36.6139 57.6133 37.0332C58.1784 37.4434 58.9076 37.6484 59.8008 37.6484C60.694 37.6484 61.4232 37.4434 61.9883 37.0332C62.5534 36.6139 62.9681 36.0124 63.2324 35.2285C63.4967 34.4447 63.6289 33.5013 63.6289 32.3984C63.6289 31.2956 63.4967 30.3613 63.2324 29.5957C62.9681 28.821 62.5534 28.2331 61.9883 27.832C61.4232 27.4219 60.6895 27.2168 59.7871 27.2168C58.4564 27.2168 57.4857 27.6634 56.875 28.5566C56.2643 29.4499 55.959 30.7305 55.959 32.3984ZM79.4746 22.5137C78.5176 22.5137 77.6608 22.6868 76.9043 23.0332C76.1569 23.3796 75.5234 23.8809 75.0039 24.5371C74.4844 25.1842 74.0879 25.9727 73.8145 26.9023C73.541 27.8229 73.4043 28.862 73.4043 30.0195C73.4043 31.569 73.623 32.9043 74.0605 34.0254C74.498 35.1374 75.1634 35.9941 76.0566 36.5957C76.9499 37.1882 78.0801 37.4844 79.4473 37.4844C80.2949 37.4844 81.1198 37.4023 81.9219 37.2383C82.724 37.0742 83.5534 36.8509 84.4102 36.5684V39.3574C83.599 39.6764 82.7786 39.9089 81.9492 40.0547C81.1198 40.2005 80.1628 40.2734 79.0781 40.2734C77.0365 40.2734 75.3411 39.8496 73.9922 39.002C72.6523 38.1543 71.6497 36.9603 70.9844 35.4199C70.3281 33.8796 70 32.0749 70 30.0059C70 28.4928 70.2096 27.1074 70.6289 25.8496C71.0482 24.5918 71.6589 23.5072 72.4609 22.5957C73.263 21.6751 74.252 20.9688 75.4277 20.4766C76.6126 19.9753 77.9661 19.7246 79.4883 19.7246C80.4909 19.7246 81.4753 19.8385 82.4414 20.0664C83.4167 20.2852 84.319 20.5996 85.1484 21.0098L84 23.7168C83.3073 23.3887 82.5827 23.1061 81.8262 22.8691C81.0697 22.6322 80.2858 22.5137 79.4746 22.5137ZM101.773 32.3984C101.773 33.6562 101.609 34.7728 101.281 35.748C100.953 36.7233 100.475 37.5482 99.8457 38.2227C99.2168 38.888 98.4603 39.3984 97.5762 39.7539C96.6921 40.1003 95.694 40.2734 94.582 40.2734C93.543 40.2734 92.5905 40.1003 91.7246 39.7539C90.8587 39.3984 90.1068 38.888 89.4688 38.2227C88.8398 37.5482 88.3522 36.7233 88.0059 35.748C87.6595 34.7728 87.4863 33.6562 87.4863 32.3984C87.4863 30.7305 87.7734 29.3177 88.3477 28.1602C88.931 26.9935 89.7604 26.1048 90.8359 25.4941C91.9115 24.8835 93.1921 24.5781 94.6777 24.5781C96.0723 24.5781 97.3027 24.8835 98.3691 25.4941C99.4355 26.1048 100.27 26.9935 100.871 28.1602C101.473 29.3268 101.773 30.7396 101.773 32.3984ZM90.7949 32.3984C90.7949 33.5013 90.9271 34.4447 91.1914 35.2285C91.4648 36.0124 91.8841 36.6139 92.4492 37.0332C93.0143 37.4434 93.7435 37.6484 94.6367 37.6484C95.5299 37.6484 96.2591 37.4434 96.8242 37.0332C97.3893 36.6139 97.804 36.0124 98.0684 35.2285C98.3327 34.4447 98.4648 33.5013 98.4648 32.3984C98.4648 31.2956 98.3327 30.3613 98.0684 29.5957C97.804 28.821 97.3893 28.2331 96.8242 27.832C96.2591 27.4219 95.5254 27.2168 94.623 27.2168C93.2923 27.2168 92.3216 27.6634 91.7109 28.5566C91.1003 29.4499 90.7949 30.7305 90.7949 32.3984ZM118.658 24.8652V40H116.129L115.691 37.9629H115.514C115.195 38.4824 114.789 38.9154 114.297 39.2617C113.805 39.599 113.258 39.8496 112.656 40.0137C112.055 40.1868 111.421 40.2734 110.756 40.2734C109.617 40.2734 108.641 40.082 107.83 39.6992C107.028 39.3073 106.413 38.7057 105.984 37.8945C105.556 37.0833 105.342 36.0352 105.342 34.75V24.8652H108.568V34.1484C108.568 35.3242 108.805 36.2038 109.279 36.7871C109.762 37.3704 110.51 37.6621 111.521 37.6621C112.497 37.6621 113.271 37.4616 113.846 37.0605C114.42 36.6595 114.826 36.0671 115.062 35.2832C115.309 34.4993 115.432 33.5378 115.432 32.3984V24.8652H118.658ZM128.898 37.6758C129.318 37.6758 129.732 37.6393 130.143 37.5664C130.553 37.4844 130.926 37.3887 131.264 37.2793V39.7129C130.908 39.8678 130.448 40 129.883 40.1094C129.318 40.2188 128.73 40.2734 128.119 40.2734C127.262 40.2734 126.492 40.1322 125.809 39.8496C125.125 39.5579 124.583 39.0612 124.182 38.3594C123.781 37.6576 123.58 36.6868 123.58 35.4473V27.3125H121.516V25.877L123.73 24.7422L124.783 21.502H126.807V24.8652H131.141V27.3125H126.807V35.4062C126.807 36.1719 126.998 36.7415 127.381 37.1152C127.764 37.4889 128.27 37.6758 128.898 37.6758ZM147.533 24.8652V40H145.004L144.566 37.9629H144.389C144.07 38.4824 143.664 38.9154 143.172 39.2617C142.68 39.599 142.133 39.8496 141.531 40.0137C140.93 40.1868 140.296 40.2734 139.631 40.2734C138.492 40.2734 137.516 40.082 136.705 39.6992C135.903 39.3073 135.288 38.7057 134.859 37.8945C134.431 37.0833 134.217 36.0352 134.217 34.75V24.8652H137.443V34.1484C137.443 35.3242 137.68 36.2038 138.154 36.7871C138.637 37.3704 139.385 37.6621 140.396 37.6621C141.372 37.6621 142.146 37.4616 142.721 37.0605C143.295 36.6595 143.701 36.0671 143.938 35.2832C144.184 34.4993 144.307 33.5378 144.307 32.3984V24.8652H147.533ZM159.811 24.5781C160.066 24.5781 160.344 24.5918 160.645 24.6191C160.945 24.6465 161.205 24.6829 161.424 24.7285L161.123 27.7363C160.932 27.6816 160.695 27.6406 160.412 27.6133C160.139 27.5859 159.893 27.5723 159.674 27.5723C159.1 27.5723 158.553 27.668 158.033 27.8594C157.514 28.0417 157.053 28.3242 156.652 28.707C156.251 29.0807 155.937 29.5501 155.709 30.1152C155.481 30.6803 155.367 31.3366 155.367 32.084V40H152.141V24.8652H154.656L155.094 27.5312H155.244C155.545 26.9935 155.919 26.5013 156.365 26.0547C156.812 25.6081 157.322 25.2526 157.896 24.9883C158.48 24.7148 159.118 24.5781 159.811 24.5781ZM170.256 24.5781C171.605 24.5781 172.762 24.8561 173.729 25.4121C174.695 25.9681 175.438 26.7565 175.957 27.7773C176.477 28.7982 176.736 30.0195 176.736 31.4414V33.1641H166.633C166.669 34.6315 167.061 35.7617 167.809 36.5547C168.565 37.3477 169.622 37.7441 170.98 37.7441C171.947 37.7441 172.812 37.653 173.578 37.4707C174.353 37.2793 175.15 37.0013 175.971 36.6367V39.248C175.214 39.6035 174.444 39.8633 173.66 40.0273C172.876 40.1914 171.938 40.2734 170.844 40.2734C169.358 40.2734 168.05 39.9863 166.92 39.4121C165.799 38.8288 164.919 37.9629 164.281 36.8145C163.652 35.666 163.338 34.2396 163.338 32.5352C163.338 30.8398 163.625 29.3997 164.199 28.2148C164.773 27.0299 165.58 26.1276 166.619 25.5078C167.658 24.888 168.87 24.5781 170.256 24.5781ZM170.256 26.998C169.244 26.998 168.424 27.3262 167.795 27.9824C167.175 28.6387 166.811 29.6003 166.701 30.8672H173.592C173.583 30.1107 173.455 29.4408 173.209 28.8574C172.972 28.2741 172.607 27.8184 172.115 27.4902C171.632 27.1621 171.012 26.998 170.256 26.998ZM179.047 33.8477V31.127H186.102V33.8477H179.047Z" fill="#FF8A00"/>
<path d="M205.475 40H202.207V30.9766H192.992V40H189.711V20.0117H192.992V28.1875H202.207V20.0117H205.475V40ZM228.197 18.7266V23.8535C228.197 24.446 228.179 25.0293 228.143 25.6035C228.115 26.1686 228.088 26.6107 228.061 26.9297H228.197C228.607 26.2734 229.177 25.722 229.906 25.2754C230.645 24.8197 231.588 24.5918 232.736 24.5918C234.532 24.5918 235.977 25.2526 237.07 26.5742C238.164 27.8867 238.711 29.8327 238.711 32.4121C238.711 34.1257 238.46 35.5658 237.959 36.7324C237.458 37.8991 236.751 38.7832 235.84 39.3848C234.938 39.9772 233.876 40.2734 232.654 40.2734C231.506 40.2734 230.576 40.0638 229.865 39.6445C229.163 39.2161 228.612 38.7194 228.211 38.1543H227.979L227.391 40H224.984V18.7266H228.197ZM231.889 27.2031C230.977 27.2031 230.253 27.3854 229.715 27.75C229.186 28.1146 228.803 28.6615 228.566 29.3906C228.329 30.1107 228.206 31.0267 228.197 32.1387V32.4258C228.197 34.112 228.462 35.4017 228.99 36.2949C229.528 37.1882 230.503 37.6348 231.916 37.6348C233.037 37.6348 233.898 37.1836 234.5 36.2812C235.102 35.3698 235.402 34.0664 235.402 32.3711C235.402 30.6576 235.102 29.3678 234.5 28.502C233.908 27.6361 233.037 27.2031 231.889 27.2031Z" fill="white"/>
<path d="M223.671 26.3071L209.505 24.8108L208.642 21.6878C208.612 21.583 208.547 21.4905 208.456 21.4244C208.366 21.3583 208.256 21.3222 208.142 21.3216H206.016C205.939 21.2228 205.839 21.1424 205.724 21.0866C205.609 21.0308 205.482 21.0012 205.354 21C205.127 21 204.91 21.0858 204.75 21.2386C204.59 21.3914 204.5 21.5987 204.5 21.8147C204.5 22.0308 204.59 22.238 204.75 22.3908C204.91 22.5436 205.127 22.6295 205.354 22.6295C205.629 22.6295 205.861 22.4982 206.017 22.3066H207.744L211.34 35.3003C210.947 35.6989 210.729 36.2249 210.728 36.7717C210.727 37.0555 210.786 37.3365 210.899 37.5988C211.013 37.8611 211.18 38.0994 211.39 38.3001C211.6 38.5008 211.85 38.66 212.124 38.7685C212.399 38.8771 212.694 38.9329 212.991 38.9327C213.592 38.9329 214.168 38.7053 214.593 38.3001C215.018 37.8949 215.257 37.3451 215.258 36.7717C215.256 36.6073 215.235 36.4436 215.194 36.2841H218.998C218.957 36.4437 218.936 36.6073 218.934 36.7717C218.934 37.966 219.949 38.9327 221.2 38.9327C222.452 38.9327 223.464 37.966 223.464 36.7717C223.465 36.1981 223.226 35.648 222.801 35.2422C222.377 34.8365 221.801 34.6083 221.2 34.608C220.547 34.608 219.962 34.8771 219.548 35.299H214.642C214.432 35.0815 214.176 34.9078 213.892 34.7889C213.608 34.67 213.301 34.6084 212.991 34.608C212.73 34.608 212.484 34.6592 212.251 34.7366L212.125 34.2864H222.151C222.537 34.2789 222.908 34.148 223.206 33.9147C223.504 33.6815 223.711 33.3594 223.794 33.0002L224.877 27.8828C224.895 27.7932 224.905 27.7023 224.905 27.6111C224.905 27.2862 224.779 26.9728 224.551 26.7317C224.323 26.4906 224.009 26.3397 223.671 26.3071ZM221.201 36.9646C221.147 36.9644 221.096 36.944 221.057 36.9078C221.019 36.8716 220.997 36.8224 220.997 36.771C220.999 36.6621 221.09 36.5754 221.202 36.5754C221.314 36.5754 221.405 36.6621 221.406 36.7703C221.405 36.8216 221.383 36.8706 221.345 36.9067C221.307 36.9428 221.256 36.9631 221.202 36.9633L221.201 36.9646ZM222.425 32.046L223.077 31.4226L222.858 32.4594L222.425 32.046ZM212.488 26.1155L213.2 26.7967L212.313 27.6432L211.424 26.7967L212.171 26.0827L212.488 26.1155ZM215.581 26.4423L215.951 26.7967L215.064 27.6432L214.175 26.7967L214.648 26.3438L215.581 26.4423ZM210.34 27.8309L210.938 27.2613L211.825 28.1092L210.938 28.9557L210.55 28.5863L210.341 27.8302L210.34 27.8309ZM210.137 27.0959L209.912 26.2822L210.451 26.7973L210.137 27.0959ZM218.7 29.4217L217.813 30.2682L216.924 29.4217L217.812 28.5731L218.7 29.4217ZM218.299 28.1092L219.187 27.2613L220.074 28.1092L219.187 28.957L218.299 28.1092ZM216.438 28.9557L215.549 28.1092L216.437 27.2606L217.324 28.1085L216.438 28.9557ZM215.95 29.4217L215.063 30.2682L214.175 29.4217L215.063 28.5731L215.95 29.4217ZM213.688 28.9557L212.799 28.1092L213.687 27.2606L214.574 28.1085L213.688 28.9557ZM213.2 29.4217L212.313 30.2682L211.424 29.4217L212.312 28.5731L213.2 29.4217ZM210.938 29.8856L211.825 30.7335L211.286 31.2473L210.915 29.906L210.937 29.8843L210.938 29.8856ZM211.489 31.9837L212.312 31.1981L213.199 32.046L212.312 32.8926L211.536 32.151L211.489 31.9837ZM212.8 30.7335L213.687 29.885L214.576 30.7328L213.689 31.5794L212.801 30.7328L212.8 30.7335ZM215.063 31.1975L215.951 32.0453L215.063 32.8919L214.175 32.0453L215.063 31.1975ZM215.55 30.7328L216.438 29.8843L217.325 30.7322L216.438 31.5788L215.55 30.7328ZM217.812 31.1968L218.701 32.0447L217.814 32.8913L216.926 32.0434L217.812 31.1968ZM218.3 30.7322L219.187 29.8837L220.076 30.7315L219.189 31.5781L218.3 30.7322ZM219.675 29.4197L220.562 28.5712L221.451 29.419L220.564 30.2656L219.675 29.4197ZM221.05 28.1072L221.937 27.2587L222.825 28.1092L221.938 28.957L221.049 28.1085L221.05 28.1072ZM220.562 27.6426L219.768 26.8839L221.199 27.0349L220.562 27.6426ZM218.701 26.7967L217.814 27.6445L216.926 26.7967L217.125 26.6063L218.674 26.7704L218.701 26.7967ZM213.689 26.3307L213.585 26.2323L213.773 26.252L213.69 26.3307H213.689ZM210.939 26.332L210.493 25.9055L211.297 25.9908L210.939 26.332ZM213.689 32.5106L214.518 33.3014H212.861L213.689 32.5106ZM216.439 32.5106L217.268 33.3021H215.61L216.439 32.5106ZM219.189 32.5106L220.019 33.3027H218.36L219.189 32.5106ZM219.676 32.046L220.564 31.1975L221.451 32.0453L220.564 32.8919L219.676 32.046ZM221.051 30.7335L221.939 29.8856L222.826 30.7322L221.939 31.5807L221.05 30.7342L221.051 30.7335ZM223.314 30.2676L222.426 29.421L223.312 28.5731L223.618 28.8645L223.323 30.2584L223.313 30.2682L223.314 30.2676ZM223.658 27.3144L223.314 27.6426L222.86 27.2114L223.559 27.2849C223.596 27.2902 223.628 27.302 223.658 27.3138L223.658 27.3144ZM212.992 36.9639C212.94 36.9611 212.891 36.9393 212.856 36.9031C212.82 36.8669 212.8 36.8191 212.8 36.7694C212.8 36.7196 212.82 36.6718 212.856 36.6356C212.891 36.5994 212.94 36.5777 212.992 36.5748C213.044 36.5777 213.093 36.5993 213.129 36.6354C213.164 36.6714 213.184 36.7191 213.184 36.7687C213.184 36.8183 213.164 36.866 213.129 36.902C213.093 36.9381 213.044 36.9597 212.992 36.9626V36.9639ZM222.152 33.3021H221.109L221.939 32.51L222.578 33.1203C222.45 33.2318 222.287 33.3106 222.152 33.3021Z" fill="white"/>
</svg>
