<svg width="178" height="48" viewBox="0 0 178 48" fill="none" xmlns="http://www.w3.org/2000/svg">
<rect width="178" height="48" fill="#FF900D"/>
<path d="M15.984 30L21.056 18.8H22.64L27.728 30H26.048L21.52 19.696H22.16L17.632 30H15.984ZM18.144 27.2L18.576 25.92H24.88L25.344 27.2H18.144ZM29.3988 30V18.8H34.1188C35.3134 18.8 36.3641 19.0347 37.2708 19.504C38.1881 19.9733 38.8974 20.6293 39.3988 21.472C39.9108 22.3147 40.1668 23.2907 40.1668 24.4C40.1668 25.5093 39.9108 26.4853 39.3988 27.328C38.8974 28.1707 38.1881 28.8267 37.2708 29.296C36.3641 29.7653 35.3134 30 34.1188 30H29.3988ZM30.9988 28.608H34.0228C34.9508 28.608 35.7508 28.432 36.4228 28.08C37.1054 27.728 37.6334 27.2373 38.0068 26.608C38.3801 25.968 38.5668 25.232 38.5668 24.4C38.5668 23.5573 38.3801 22.8213 38.0068 22.192C37.6334 21.5627 37.1054 21.072 36.4228 20.72C35.7508 20.368 34.9508 20.192 34.0228 20.192H30.9988V28.608ZM42.6175 30V18.8H47.3375C48.5322 18.8 49.5828 19.0347 50.4895 19.504C51.4068 19.9733 52.1162 20.6293 52.6175 21.472C53.1295 22.3147 53.3855 23.2907 53.3855 24.4C53.3855 25.5093 53.1295 26.4853 52.6175 27.328C52.1162 28.1707 51.4068 28.8267 50.4895 29.296C49.5828 29.7653 48.5322 30 47.3375 30H42.6175ZM44.2175 28.608H47.2415C48.1695 28.608 48.9695 28.432 49.6415 28.08C50.3242 27.728 50.8522 27.2373 51.2255 26.608C51.5988 25.968 51.7855 25.232 51.7855 24.4C51.7855 23.5573 51.5988 22.8213 51.2255 22.192C50.8522 21.5627 50.3242 21.072 49.6415 20.72C48.9695 20.368 48.1695 20.192 47.2415 20.192H44.2175V28.608ZM62.3571 30V20.192H58.5171V18.8H67.7811V20.192H63.9411V30H62.3571ZM74.4235 30.128C73.5702 30.128 72.7755 29.984 72.0395 29.696C71.3142 29.408 70.6848 29.008 70.1515 28.496C69.6182 27.9733 69.2022 27.3653 68.9035 26.672C68.6048 25.9787 68.4555 25.2213 68.4555 24.4C68.4555 23.5787 68.6048 22.8213 68.9035 22.128C69.2022 21.4347 69.6182 20.832 70.1515 20.32C70.6848 19.7973 71.3142 19.392 72.0395 19.104C72.7648 18.816 73.5595 18.672 74.4235 18.672C75.2768 18.672 76.0608 18.816 76.7755 19.104C77.5008 19.3813 78.1302 19.7813 78.6635 20.304C79.2075 20.816 79.6235 21.4187 79.9115 22.112C80.2102 22.8053 80.3595 23.568 80.3595 24.4C80.3595 25.232 80.2102 25.9947 79.9115 26.688C79.6235 27.3813 79.2075 27.9893 78.6635 28.512C78.1302 29.024 77.5008 29.424 76.7755 29.712C76.0608 29.9893 75.2768 30.128 74.4235 30.128ZM74.4235 28.704C75.0422 28.704 75.6128 28.5973 76.1355 28.384C76.6688 28.1707 77.1275 27.872 77.5115 27.488C77.9062 27.0933 78.2102 26.6347 78.4235 26.112C78.6475 25.5893 78.7595 25.0187 78.7595 24.4C78.7595 23.7813 78.6475 23.2107 78.4235 22.688C78.2102 22.1653 77.9062 21.712 77.5115 21.328C77.1275 20.9333 76.6688 20.6293 76.1355 20.416C75.6128 20.2027 75.0422 20.096 74.4235 20.096C73.7942 20.096 73.2128 20.2027 72.6795 20.416C72.1568 20.6293 71.6982 20.9333 71.3035 21.328C70.9088 21.712 70.5995 22.1653 70.3755 22.688C70.1622 23.2107 70.0555 23.7813 70.0555 24.4C70.0555 25.0187 70.1622 25.5893 70.3755 26.112C70.5995 26.6347 70.9088 27.0933 71.3035 27.488C71.6982 27.872 72.1568 28.1707 72.6795 28.384C73.2128 28.5973 73.7942 28.704 74.4235 28.704ZM92.1099 30.128C91.2565 30.128 90.4672 29.9893 89.7419 29.712C89.0272 29.424 88.4032 29.024 87.8699 28.512C87.3472 27.9893 86.9365 27.3813 86.6379 26.688C86.3392 25.9947 86.1899 25.232 86.1899 24.4C86.1899 23.568 86.3392 22.8053 86.6379 22.112C86.9365 21.4187 87.3525 20.816 87.8859 20.304C88.4192 19.7813 89.0432 19.3813 89.7579 19.104C90.4832 18.816 91.2725 18.672 92.1259 18.672C92.9899 18.672 93.7845 18.8213 94.5099 19.12C95.2459 19.408 95.8699 19.84 96.3819 20.416L95.3419 21.424C94.9152 20.976 94.4352 20.6453 93.9019 20.432C93.3685 20.208 92.7979 20.096 92.1899 20.096C91.5605 20.096 90.9739 20.2027 90.4299 20.416C89.8965 20.6293 89.4325 20.928 89.0379 21.312C88.6432 21.696 88.3339 22.1547 88.1099 22.688C87.8965 23.2107 87.7899 23.7813 87.7899 24.4C87.7899 25.0187 87.8965 25.5947 88.1099 26.128C88.3339 26.6507 88.6432 27.104 89.0379 27.488C89.4325 27.872 89.8965 28.1707 90.4299 28.384C90.9739 28.5973 91.5605 28.704 92.1899 28.704C92.7979 28.704 93.3685 28.5973 93.9019 28.384C94.4352 28.16 94.9152 27.8187 95.3419 27.36L96.3819 28.368C95.8699 28.944 95.2459 29.3813 94.5099 29.68C93.7845 29.9787 92.9845 30.128 92.1099 30.128ZM96.7027 30L101.775 18.8H103.359L108.447 30H106.767L102.239 19.696H102.879L98.3508 30H96.7027ZM98.8628 27.2L99.2948 25.92H105.599L106.063 27.2H98.8628ZM110.118 30V18.8H114.486C115.467 18.8 116.304 18.9547 116.998 19.264C117.691 19.5733 118.224 20.0213 118.598 20.608C118.971 21.1947 119.158 21.8933 119.158 22.704C119.158 23.5147 118.971 24.2133 118.598 24.8C118.224 25.376 117.691 25.8187 116.998 26.128C116.304 26.4373 115.467 26.592 114.486 26.592H110.998L111.718 25.856V30H110.118ZM117.606 30L114.758 25.936H116.47L119.35 30H117.606ZM111.718 26.016L110.998 25.232H114.438C115.462 25.232 116.235 25.0133 116.758 24.576C117.291 24.128 117.558 23.504 117.558 22.704C117.558 21.904 117.291 21.2853 116.758 20.848C116.235 20.4107 115.462 20.192 114.438 20.192H110.998L111.718 19.392V26.016ZM123.81 30V20.192H119.97V18.8H129.234V20.192H125.394V30H123.81Z" fill="white" fill-opacity="0.8"/>
<path d="M145.5 33.75C146.328 33.75 147 33.0784 147 32.25C147 31.4216 146.328 30.75 145.5 30.75C144.672 30.75 144 31.4216 144 32.25C144 33.0784 144.672 33.75 145.5 33.75Z" fill="white" fill-opacity="0.8"/>
<path d="M155.25 33.75C156.078 33.75 156.75 33.0784 156.75 32.25C156.75 31.4216 156.078 30.75 155.25 30.75C154.422 30.75 153.75 31.4216 153.75 32.25C153.75 33.0784 154.422 33.75 155.25 33.75Z" fill="white" fill-opacity="0.8"/>
<path d="M141.966 18.75H158.784L156.309 27.4125C156.221 27.7269 156.032 28.0036 155.771 28.2C155.51 28.3965 155.192 28.5019 154.866 28.5H145.884C145.558 28.5019 145.24 28.3965 144.979 28.2C144.718 28.0036 144.529 27.7269 144.441 27.4125L141.047 15.5438C141.002 15.387 140.907 15.2491 140.777 15.1509C140.647 15.0528 140.488 14.9998 140.325 15H138.75" stroke="white" stroke-opacity="0.8" stroke-width="2" stroke-linecap="round" stroke-linejoin="round"/>
</svg>
