<svg width="156" height="24" viewBox="0 0 156 24" fill="none" xmlns="http://www.w3.org/2000/svg">
<path d="M16.6875 4.125C14.6775 4.125 12.945 5.08031 12 6.66281C11.055 5.08031 9.3225 4.125 7.3125 4.125C5.87092 4.12674 4.48888 4.70017 3.46952 5.71952C2.45017 6.73888 1.87674 8.12092 1.875 9.5625C1.875 12.2428 3.5625 15.0441 6.88125 17.8866C8.4136 19.1905 10.0681 20.3437 11.8219 21.33C11.8766 21.3595 11.9378 21.375 12 21.375C12.0622 21.375 12.1234 21.3595 12.1781 21.33C13.9319 20.3437 15.5864 19.1905 17.1188 17.8866C20.4375 15.0441 22.125 12.2428 22.125 9.5625C22.1233 8.12092 21.5498 6.73888 20.5305 5.71952C19.5111 4.70017 18.1291 4.12674 16.6875 4.125ZM12 20.5706C10.6875 19.8206 2.625 15.0066 2.625 9.5625C2.62649 8.31975 3.12083 7.12834 3.99958 6.24958C4.87834 5.37083 6.06975 4.87649 7.3125 4.875C9.29156 4.875 10.9547 5.93531 11.6531 7.64156C11.6814 7.71034 11.7294 7.76917 11.7912 7.81057C11.853 7.85197 11.9256 7.87408 12 7.87408C12.0744 7.87408 12.147 7.85197 12.2088 7.81057C12.2706 7.76917 12.3186 7.71034 12.3469 7.64156C13.0453 5.93531 14.7084 4.875 16.6875 4.875C17.9302 4.87649 19.1217 5.37083 20.0004 6.24958C20.8792 7.12834 21.3735 8.31975 21.375 9.5625C21.375 15 13.3125 19.8244 12 20.5706Z" fill="#232347" fill-opacity="0.6"/>
<path d="M31.984 18L37.056 6.8H38.64L43.728 18H42.048L37.52 7.696H38.16L33.632 18H31.984ZM34.144 15.2L34.576 13.92H40.88L41.344 15.2H34.144ZM48.6006 18.096C47.7793 18.096 47.0433 17.9147 46.3926 17.552C45.7526 17.1893 45.246 16.6827 44.8726 16.032C44.4993 15.3813 44.3126 14.624 44.3126 13.76C44.3126 12.896 44.4993 12.144 44.8726 11.504C45.246 10.8533 45.7526 10.3467 46.3926 9.984C47.0433 9.62133 47.7793 9.44 48.6006 9.44C49.3153 9.44 49.9606 9.6 50.5366 9.92C51.1126 10.24 51.5713 10.72 51.9126 11.36C52.2646 12 52.4406 12.8 52.4406 13.76C52.4406 14.72 52.27 15.52 51.9286 16.16C51.598 16.8 51.1446 17.2853 50.5686 17.616C49.9926 17.936 49.3366 18.096 48.6006 18.096ZM48.7286 16.752C49.262 16.752 49.742 16.6293 50.1686 16.384C50.606 16.1387 50.9473 15.792 51.1926 15.344C51.4486 14.8853 51.5766 14.3573 51.5766 13.76C51.5766 13.152 51.4486 12.6293 51.1926 12.192C50.9473 11.744 50.606 11.3973 50.1686 11.152C49.742 10.9067 49.262 10.784 48.7286 10.784C48.1846 10.784 47.6993 10.9067 47.2726 11.152C46.846 11.3973 46.5046 11.744 46.2486 12.192C45.9926 12.6293 45.8646 13.152 45.8646 13.76C45.8646 14.3573 45.9926 14.8853 46.2486 15.344C46.5046 15.792 46.846 16.1387 47.2726 16.384C47.6993 16.6293 48.1846 16.752 48.7286 16.752ZM51.6246 18V15.712L51.7206 13.744L51.5606 11.776V6.128H53.0966V18H51.6246ZM59.5069 18.096C58.6855 18.096 57.9495 17.9147 57.2989 17.552C56.6589 17.1893 56.1522 16.6827 55.7789 16.032C55.4055 15.3813 55.2189 14.624 55.2189 13.76C55.2189 12.896 55.4055 12.144 55.7789 11.504C56.1522 10.8533 56.6589 10.3467 57.2989 9.984C57.9495 9.62133 58.6855 9.44 59.5069 9.44C60.2215 9.44 60.8669 9.6 61.4429 9.92C62.0189 10.24 62.4775 10.72 62.8189 11.36C63.1709 12 63.3469 12.8 63.3469 13.76C63.3469 14.72 63.1762 15.52 62.8349 16.16C62.5042 16.8 62.0509 17.2853 61.4749 17.616C60.8989 17.936 60.2429 18.096 59.5069 18.096ZM59.6349 16.752C60.1682 16.752 60.6482 16.6293 61.0749 16.384C61.5122 16.1387 61.8535 15.792 62.0989 15.344C62.3549 14.8853 62.4829 14.3573 62.4829 13.76C62.4829 13.152 62.3549 12.6293 62.0989 12.192C61.8535 11.744 61.5122 11.3973 61.0749 11.152C60.6482 10.9067 60.1682 10.784 59.6349 10.784C59.0909 10.784 58.6055 10.9067 58.1789 11.152C57.7522 11.3973 57.4109 11.744 57.1549 12.192C56.8989 12.6293 56.7709 13.152 56.7709 13.76C56.7709 14.3573 56.8989 14.8853 57.1549 15.344C57.4109 15.792 57.7522 16.1387 58.1789 16.384C58.6055 16.6293 59.0909 16.752 59.6349 16.752ZM62.5309 18V15.712L62.6269 13.744L62.4669 11.776V6.128H64.0029V18H62.5309ZM74.118 18.096C73.2647 18.096 72.6033 17.8667 72.134 17.408C71.6647 16.9493 71.43 16.2933 71.43 15.44V7.664H72.966V15.376C72.966 15.8347 73.078 16.1867 73.302 16.432C73.5367 16.6773 73.8673 16.8 74.294 16.8C74.774 16.8 75.174 16.6667 75.494 16.4L75.974 17.504C75.7393 17.7067 75.4567 17.856 75.126 17.952C74.806 18.048 74.47 18.096 74.118 18.096ZM69.99 10.784V9.52H75.398V10.784H69.99ZM81.1818 18.096C80.3284 18.096 79.5711 17.9093 78.9098 17.536C78.2484 17.1627 77.7258 16.6507 77.3418 16C76.9578 15.3387 76.7658 14.592 76.7658 13.76C76.7658 12.9173 76.9578 12.1707 77.3418 11.52C77.7258 10.8693 78.2484 10.3627 78.9098 10C79.5711 9.62667 80.3284 9.44 81.1818 9.44C82.0244 9.44 82.7764 9.62667 83.4378 10C84.1098 10.3627 84.6324 10.8693 85.0058 11.52C85.3898 12.16 85.5818 12.9067 85.5818 13.76C85.5818 14.6027 85.3898 15.3493 85.0058 16C84.6324 16.6507 84.1098 17.1627 83.4378 17.536C82.7764 17.9093 82.0244 18.096 81.1818 18.096ZM81.1818 16.752C81.7258 16.752 82.2111 16.6293 82.6378 16.384C83.0751 16.1387 83.4164 15.792 83.6618 15.344C83.9071 14.8853 84.0298 14.3573 84.0298 13.76C84.0298 13.152 83.9071 12.6293 83.6618 12.192C83.4164 11.744 83.0751 11.3973 82.6378 11.152C82.2111 10.9067 81.7258 10.784 81.1818 10.784C80.6378 10.784 80.1524 10.9067 79.7258 11.152C79.2991 11.3973 78.9578 11.744 78.7018 12.192C78.4458 12.6293 78.3178 13.152 78.3178 13.76C78.3178 14.3573 78.4458 14.8853 78.7018 15.344C78.9578 15.792 79.2991 16.1387 79.7258 16.384C80.1524 16.6293 80.6378 16.752 81.1818 16.752ZM94.8029 18L91.0589 6.8H92.7069L96.1469 17.136H95.3149L98.8829 6.8H100.355L103.843 17.136H103.043L106.531 6.8H108.051L104.307 18H102.627L99.3629 8.416H99.7949L96.5149 18H94.8029ZM109.784 18V9.52H111.32V18H109.784ZM110.552 7.888C110.253 7.888 110.003 7.792 109.8 7.6C109.608 7.408 109.512 7.17333 109.512 6.896C109.512 6.608 109.608 6.368 109.8 6.176C110.003 5.984 110.253 5.888 110.552 5.888C110.851 5.888 111.096 5.984 111.288 6.176C111.491 6.35733 111.592 6.58667 111.592 6.864C111.592 7.152 111.496 7.39733 111.304 7.6C111.112 7.792 110.861 7.888 110.552 7.888ZM116.685 18.096C115.981 18.096 115.309 18 114.669 17.808C114.04 17.616 113.544 17.3813 113.181 17.104L113.821 15.888C114.184 16.1333 114.632 16.3413 115.165 16.512C115.698 16.6827 116.242 16.768 116.797 16.768C117.512 16.768 118.024 16.6667 118.333 16.464C118.653 16.2613 118.813 15.9787 118.813 15.616C118.813 15.3493 118.717 15.1413 118.525 14.992C118.333 14.8427 118.077 14.7307 117.757 14.656C117.448 14.5813 117.101 14.5173 116.717 14.464C116.333 14.4 115.949 14.3253 115.565 14.24C115.181 14.144 114.829 14.016 114.509 13.856C114.189 13.6853 113.933 13.456 113.741 13.168C113.549 12.8693 113.453 12.4747 113.453 11.984C113.453 11.472 113.597 11.024 113.885 10.64C114.173 10.256 114.578 9.96267 115.101 9.76C115.634 9.54667 116.264 9.44 116.989 9.44C117.544 9.44 118.104 9.50933 118.669 9.648C119.245 9.776 119.714 9.96267 120.077 10.208L119.421 11.424C119.037 11.168 118.637 10.992 118.221 10.896C117.805 10.8 117.389 10.752 116.973 10.752C116.301 10.752 115.8 10.864 115.469 11.088C115.138 11.3013 114.973 11.5787 114.973 11.92C114.973 12.208 115.069 12.432 115.261 12.592C115.464 12.7413 115.72 12.8587 116.029 12.944C116.349 13.0293 116.701 13.104 117.085 13.168C117.469 13.2213 117.853 13.296 118.237 13.392C118.621 13.4773 118.968 13.6 119.277 13.76C119.597 13.92 119.853 14.144 120.045 14.432C120.248 14.72 120.349 15.104 120.349 15.584C120.349 16.096 120.2 16.5387 119.901 16.912C119.602 17.2853 119.181 17.5787 118.637 17.792C118.093 17.9947 117.442 18.096 116.685 18.096ZM126.797 9.44C127.49 9.44 128.098 9.57333 128.621 9.84C129.154 10.1067 129.57 10.512 129.869 11.056C130.167 11.6 130.317 12.288 130.317 13.12V18H128.781V13.296C128.781 12.4747 128.578 11.856 128.173 11.44C127.778 11.024 127.218 10.816 126.493 10.816C125.949 10.816 125.474 10.9227 125.069 11.136C124.663 11.3493 124.349 11.664 124.125 12.08C123.911 12.496 123.805 13.0133 123.805 13.632V18H122.269V6.128H123.805V11.808L123.501 11.2C123.778 10.6453 124.205 10.2133 124.781 9.904C125.357 9.59467 126.029 9.44 126.797 9.44ZM133.159 18V6.128H134.695V18H133.159ZM137.628 18V9.52H139.164V18H137.628ZM138.396 7.888C138.097 7.888 137.847 7.792 137.644 7.6C137.452 7.408 137.356 7.17333 137.356 6.896C137.356 6.608 137.452 6.368 137.644 6.176C137.847 5.984 138.097 5.888 138.396 5.888C138.695 5.888 138.94 5.984 139.132 6.176C139.335 6.35733 139.436 6.58667 139.436 6.864C139.436 7.152 139.34 7.39733 139.148 7.6C138.956 7.792 138.705 7.888 138.396 7.888ZM144.529 18.096C143.825 18.096 143.153 18 142.513 17.808C141.883 17.616 141.387 17.3813 141.025 17.104L141.665 15.888C142.027 16.1333 142.475 16.3413 143.009 16.512C143.542 16.6827 144.086 16.768 144.641 16.768C145.355 16.768 145.867 16.6667 146.177 16.464C146.497 16.2613 146.657 15.9787 146.657 15.616C146.657 15.3493 146.561 15.1413 146.369 14.992C146.177 14.8427 145.921 14.7307 145.601 14.656C145.291 14.5813 144.945 14.5173 144.561 14.464C144.177 14.4 143.793 14.3253 143.409 14.24C143.025 14.144 142.673 14.016 142.353 13.856C142.033 13.6853 141.777 13.456 141.585 13.168C141.393 12.8693 141.297 12.4747 141.297 11.984C141.297 11.472 141.441 11.024 141.729 10.64C142.017 10.256 142.422 9.96267 142.945 9.76C143.478 9.54667 144.107 9.44 144.833 9.44C145.387 9.44 145.947 9.50933 146.513 9.648C147.089 9.776 147.558 9.96267 147.921 10.208L147.265 11.424C146.881 11.168 146.481 10.992 146.065 10.896C145.649 10.8 145.233 10.752 144.817 10.752C144.145 10.752 143.643 10.864 143.313 11.088C142.982 11.3013 142.817 11.5787 142.817 11.92C142.817 12.208 142.913 12.432 143.105 12.592C143.307 12.7413 143.563 12.8587 143.873 12.944C144.193 13.0293 144.545 13.104 144.929 13.168C145.313 13.2213 145.697 13.296 146.081 13.392C146.465 13.4773 146.811 13.6 147.121 13.76C147.441 13.92 147.697 14.144 147.889 14.432C148.091 14.72 148.193 15.104 148.193 15.584C148.193 16.096 148.043 16.5387 147.745 16.912C147.446 17.2853 147.025 17.5787 146.481 17.792C145.937 17.9947 145.286 18.096 144.529 18.096ZM153.024 18.096C152.171 18.096 151.51 17.8667 151.04 17.408C150.571 16.9493 150.336 16.2933 150.336 15.44V7.664H151.872V15.376C151.872 15.8347 151.984 16.1867 152.208 16.432C152.443 16.6773 152.774 16.8 153.2 16.8C153.68 16.8 154.08 16.6667 154.4 16.4L154.88 17.504C154.646 17.7067 154.363 17.856 154.032 17.952C153.712 18.048 153.376 18.096 153.024 18.096ZM148.896 10.784V9.52H154.304V10.784H148.896Z" fill="#232347" fill-opacity="0.6"/>
</svg>
