<svg width="116" height="48" viewBox="0 0 116 48" fill="none" xmlns="http://www.w3.org/2000/svg">
<rect x="0.5" y="0.5" width="115" height="47" stroke="#FF900D"/>
<path d="M17.68 30V18.8H22.704C23.9947 18.8 24.9867 19.0613 25.68 19.584C26.3733 20.096 26.72 20.8 26.72 21.696C26.72 22.304 26.5813 22.816 26.304 23.232C26.0373 23.648 25.6747 23.968 25.216 24.192C24.7573 24.416 24.2613 24.528 23.728 24.528L24.016 24.048C24.656 24.048 25.2213 24.16 25.712 24.384C26.2027 24.608 26.592 24.9387 26.88 25.376C27.168 25.8027 27.312 26.336 27.312 26.976C27.312 27.936 26.9493 28.6827 26.224 29.216C25.5093 29.7387 24.4427 30 23.024 30H17.68ZM19.28 28.704H22.96C23.8453 28.704 24.5227 28.5547 24.992 28.256C25.4613 27.9573 25.696 27.488 25.696 26.848C25.696 26.1973 25.4613 25.7227 24.992 25.424C24.5227 25.1253 23.8453 24.976 22.96 24.976H19.136V23.68H22.56C23.3707 23.68 24 23.5307 24.448 23.232C24.896 22.9333 25.12 22.4853 25.12 21.888C25.12 21.2907 24.896 20.8427 24.448 20.544C24 20.2453 23.3707 20.096 22.56 20.096H19.28V28.704ZM34.4294 30.128C32.9574 30.128 31.8 29.7067 30.9574 28.864C30.1147 28.0213 29.6934 26.7893 29.6934 25.168V18.8H31.2934V25.104C31.2934 26.352 31.5654 27.264 32.1094 27.84C32.664 28.416 33.4427 28.704 34.4454 28.704C35.4587 28.704 36.2374 28.416 36.7814 27.84C37.336 27.264 37.6134 26.352 37.6134 25.104V18.8H39.1654V25.168C39.1654 26.7893 38.744 28.0213 37.9014 28.864C37.0694 29.7067 35.912 30.128 34.4294 30.128ZM44.9934 30V25.712L45.3614 26.704L40.5454 18.8H42.2574L46.3054 25.472H45.3774L49.4414 18.8H51.0254L46.2254 26.704L46.5774 25.712V30H44.9934ZM56.9456 30V18.8H58.2576L65.6656 28H64.9776V18.8H66.5776V30H65.2656L57.8576 20.8H58.5456V30H56.9456ZM74.986 30.128C74.1327 30.128 73.338 29.984 72.602 29.696C71.8767 29.408 71.2473 29.008 70.714 28.496C70.1807 27.9733 69.7647 27.3653 69.466 26.672C69.1673 25.9787 69.018 25.2213 69.018 24.4C69.018 23.5787 69.1673 22.8213 69.466 22.128C69.7647 21.4347 70.1807 20.832 70.714 20.32C71.2473 19.7973 71.8767 19.392 72.602 19.104C73.3273 18.816 74.122 18.672 74.986 18.672C75.8393 18.672 76.6233 18.816 77.338 19.104C78.0633 19.3813 78.6927 19.7813 79.226 20.304C79.77 20.816 80.186 21.4187 80.474 22.112C80.7727 22.8053 80.922 23.568 80.922 24.4C80.922 25.232 80.7727 25.9947 80.474 26.688C80.186 27.3813 79.77 27.9893 79.226 28.512C78.6927 29.024 78.0633 29.424 77.338 29.712C76.6233 29.9893 75.8393 30.128 74.986 30.128ZM74.986 28.704C75.6047 28.704 76.1753 28.5973 76.698 28.384C77.2313 28.1707 77.69 27.872 78.074 27.488C78.4687 27.0933 78.7727 26.6347 78.986 26.112C79.21 25.5893 79.322 25.0187 79.322 24.4C79.322 23.7813 79.21 23.2107 78.986 22.688C78.7727 22.1653 78.4687 21.712 78.074 21.328C77.69 20.9333 77.2313 20.6293 76.698 20.416C76.1753 20.2027 75.6047 20.096 74.986 20.096C74.3567 20.096 73.7753 20.2027 73.242 20.416C72.7193 20.6293 72.2607 20.9333 71.866 21.328C71.4713 21.712 71.162 22.1653 70.938 22.688C70.7247 23.2107 70.618 23.7813 70.618 24.4C70.618 25.0187 70.7247 25.5893 70.938 26.112C71.162 26.6347 71.4713 27.0933 71.866 27.488C72.2607 27.872 72.7193 28.1707 73.242 28.384C73.7753 28.5973 74.3567 28.704 74.986 28.704ZM85.5998 30L81.8558 18.8H83.5038L86.9438 29.136H86.1118L89.6798 18.8H91.1518L94.6398 29.136H93.8398L97.3278 18.8H98.8478L95.1038 30H93.4238L90.1597 20.416H90.5918L87.3118 30H85.5998Z" fill="#FF900D"/>
</svg>
