<svg width="24" height="25" viewBox="0 0 24 25" fill="none" xmlns="http://www.w3.org/2000/svg">
<g clip-path="url(#clip0_853_26063)">
<path fill-rule="evenodd" clip-rule="evenodd" d="M12 0.507812C18.6274 0.507812 24 5.8804 24 12.5078C24 19.1352 18.6274 24.5078 12 24.5078C5.37259 24.5078 0 19.1352 0 12.5078C0 5.8804 5.37259 0.507812 12 0.507812Z" fill="#FA8232"/>
<path d="M13.5623 24.4092V15.1383H16.1775L16.5241 11.8754H13.5623L13.5667 10.2422C13.5667 9.39113 13.6476 8.93534 14.8707 8.93534H16.5058V5.67188H13.89C10.748 5.67188 9.64224 7.25466 9.64224 9.9168V11.8757H7.68359V15.1389H9.64224V24.2777C10.4053 24.4297 11.1941 24.5099 12.0018 24.5099C12.5236 24.51 13.0448 24.4763 13.5623 24.4092Z" fill="white"/>
</g>
<defs>
<clipPath id="clip0_853_26063">
<rect width="24" height="24" fill="white" transform="translate(0 0.507812)"/>
</clipPath>
</defs>
</svg>
