<svg width="525" height="71" viewBox="0 0 525 71" fill="none" xmlns="http://www.w3.org/2000/svg">
<rect x="0.5" y="0.5" width="524" height="70" fill="white" fill-opacity="0.8"/>
<rect x="0.5" y="0.5" width="524" height="70" stroke="#E3E3E3"/>
<path d="M16.1506 15.2727V24H14.8295V16.5938H14.7784L12.6903 17.9574V16.696L14.8679 15.2727H16.1506ZM21.5497 24.1449C20.8764 24.142 20.3011 23.9645 19.8239 23.6122C19.3466 23.2599 18.9815 22.7472 18.7287 22.0739C18.4759 21.4006 18.3494 20.5895 18.3494 19.6406C18.3494 18.6946 18.4759 17.8864 18.7287 17.2159C18.9844 16.5455 19.3509 16.0341 19.8281 15.6818C20.3082 15.3295 20.8821 15.1534 21.5497 15.1534C22.2173 15.1534 22.7898 15.331 23.267 15.6861C23.7443 16.0384 24.1094 16.5497 24.3622 17.2202C24.6179 17.8878 24.7457 18.6946 24.7457 19.6406C24.7457 20.5923 24.6193 21.4048 24.3665 22.0781C24.1136 22.7486 23.7486 23.2614 23.2713 23.6165C22.794 23.9688 22.2202 24.1449 21.5497 24.1449ZM21.5497 23.0071C22.1406 23.0071 22.6023 22.7188 22.9347 22.142C23.2699 21.5653 23.4375 20.7315 23.4375 19.6406C23.4375 18.9162 23.3608 18.304 23.2074 17.804C23.0568 17.3011 22.8395 16.9205 22.5554 16.6619C22.2741 16.4006 21.9389 16.2699 21.5497 16.2699C20.9616 16.2699 20.5 16.5597 20.1648 17.1392C19.8295 17.7187 19.6605 18.5526 19.6577 19.6406C19.6577 20.3679 19.733 20.983 19.8835 21.4858C20.0369 21.9858 20.2543 22.3651 20.5355 22.6236C20.8168 22.8793 21.1548 23.0071 21.5497 23.0071ZM29.2958 24.1449C28.6225 24.142 28.0472 23.9645 27.57 23.6122C27.0927 23.2599 26.7276 22.7472 26.4748 22.0739C26.2219 21.4006 26.0955 20.5895 26.0955 19.6406C26.0955 18.6946 26.2219 17.8864 26.4748 17.2159C26.7305 16.5455 27.0969 16.0341 27.5742 15.6818C28.0543 15.3295 28.6282 15.1534 29.2958 15.1534C29.9634 15.1534 30.5359 15.331 31.0131 15.6861C31.4904 16.0384 31.8555 16.5497 32.1083 17.2202C32.364 17.8878 32.4918 18.6946 32.4918 19.6406C32.4918 20.5923 32.3654 21.4048 32.1126 22.0781C31.8597 22.7486 31.4947 23.2614 31.0174 23.6165C30.5401 23.9688 29.9663 24.1449 29.2958 24.1449ZM29.2958 23.0071C29.8867 23.0071 30.3484 22.7188 30.6808 22.142C31.016 21.5653 31.1836 20.7315 31.1836 19.6406C31.1836 18.9162 31.1069 18.304 30.9535 17.804C30.8029 17.3011 30.5856 16.9205 30.3015 16.6619C30.0202 16.4006 29.685 16.2699 29.2958 16.2699C28.7077 16.2699 28.2461 16.5597 27.9109 17.1392C27.5756 17.7187 27.4066 18.5526 27.4038 19.6406C27.4038 20.3679 27.479 20.983 27.6296 21.4858C27.783 21.9858 28.0004 22.3651 28.2816 22.6236C28.5629 22.8793 28.9009 23.0071 29.2958 23.0071ZM38.5589 22.3636V21.9034C38.5589 21.5739 38.6271 21.2727 38.7635 21C38.9027 20.7244 39.1044 20.5043 39.3686 20.3395C39.6357 20.1719 39.9581 20.0881 40.3359 20.0881C40.7223 20.0881 41.0462 20.1705 41.3075 20.3352C41.5689 20.5 41.7663 20.7202 41.8999 20.9957C42.0362 21.2713 42.1044 21.5739 42.1044 21.9034V22.3636C42.1044 22.6932 42.0362 22.9957 41.8999 23.2713C41.7635 23.544 41.5632 23.7642 41.299 23.9318C41.0376 24.0966 40.7166 24.179 40.3359 24.179C39.9524 24.179 39.6286 24.0966 39.3643 23.9318C39.1001 23.7642 38.8999 23.544 38.7635 23.2713C38.6271 22.9957 38.5589 22.6932 38.5589 22.3636ZM39.5518 21.9034V22.3636C39.5518 22.608 39.6101 22.8295 39.7266 23.0284C39.843 23.2273 40.0462 23.3267 40.3359 23.3267C40.6229 23.3267 40.8232 23.2273 40.9368 23.0284C41.0504 22.8295 41.1072 22.608 41.1072 22.3636V21.9034C41.1072 21.6591 41.0518 21.4375 40.9411 21.2386C40.8331 21.0398 40.6314 20.9403 40.3359 20.9403C40.0518 20.9403 39.8501 21.0398 39.7308 21.2386C39.6115 21.4375 39.5518 21.6591 39.5518 21.9034ZM34.1697 17.3693V16.9091C34.1697 16.5795 34.2379 16.277 34.3743 16.0014C34.5135 15.7259 34.7152 15.5057 34.9794 15.3409C35.2464 15.1761 35.5689 15.0938 35.9467 15.0938C36.3331 15.0938 36.657 15.1761 36.9183 15.3409C37.1797 15.5057 37.3771 15.7259 37.5107 16.0014C37.6442 16.277 37.7109 16.5795 37.7109 16.9091V17.3693C37.7109 17.6989 37.6428 18.0014 37.5064 18.277C37.3729 18.5497 37.174 18.7699 36.9098 18.9375C36.6484 19.1023 36.3274 19.1847 35.9467 19.1847C35.5604 19.1847 35.2351 19.1023 34.9709 18.9375C34.7095 18.7699 34.5107 18.5497 34.3743 18.277C34.2379 18.0014 34.1697 17.6989 34.1697 17.3693ZM35.1669 16.9091V17.3693C35.1669 17.6136 35.2237 17.8352 35.3374 18.0341C35.4538 18.233 35.657 18.3324 35.9467 18.3324C36.2308 18.3324 36.4297 18.233 36.5433 18.0341C36.6598 17.8352 36.718 17.6136 36.718 17.3693V16.9091C36.718 16.6648 36.6626 16.4432 36.5518 16.2443C36.4411 16.0455 36.2393 15.946 35.9467 15.946C35.6626 15.946 35.4609 16.0455 35.3416 16.2443C35.2251 16.4432 35.1669 16.6648 35.1669 16.9091ZM34.5746 24L40.5746 15.2727H41.593L35.593 24H34.5746ZM53.1424 18.0298C53.06 17.7713 52.9492 17.5398 52.81 17.3352C52.6737 17.1278 52.5103 16.9517 52.32 16.8068C52.1296 16.6591 51.9123 16.5469 51.668 16.4702C51.4265 16.3935 51.1609 16.3551 50.8711 16.3551C50.3796 16.3551 49.9364 16.4815 49.5415 16.7344C49.1467 16.9872 48.8342 17.358 48.604 17.8466C48.3768 18.3324 48.2631 18.9276 48.2631 19.6321C48.2631 20.3395 48.3782 20.9375 48.6083 21.4261C48.8384 21.9148 49.1538 22.2855 49.5543 22.5384C49.9549 22.7912 50.4109 22.9176 50.9222 22.9176C51.3967 22.9176 51.81 22.821 52.1623 22.6278C52.5174 22.4347 52.7915 22.1619 52.9847 21.8097C53.1808 21.4545 53.2788 21.0369 53.2788 20.5568L53.6197 20.6207H51.1225V19.5341H54.5529V20.527C54.5529 21.2599 54.3967 21.8963 54.0842 22.4361C53.7745 22.973 53.3455 23.3878 52.7972 23.6804C52.2518 23.973 51.6268 24.1193 50.9222 24.1193C50.1325 24.1193 49.4393 23.9375 48.8427 23.5739C48.2489 23.2102 47.7859 22.6946 47.4535 22.027C47.1211 21.3565 46.9549 20.5611 46.9549 19.6406C46.9549 18.9446 47.0515 18.3196 47.2447 17.7656C47.4379 17.2116 47.7092 16.7415 48.0586 16.3551C48.4109 15.9659 48.8242 15.669 49.2987 15.4645C49.7759 15.2571 50.2972 15.1534 50.8626 15.1534C51.3342 15.1534 51.7731 15.223 52.1793 15.3622C52.5884 15.5014 52.9521 15.6989 53.2702 15.9545C53.5913 16.2102 53.8569 16.5142 54.0671 16.8665C54.2773 17.2159 54.4194 17.6037 54.4933 18.0298H53.1424ZM60.2685 21.2855V17.4545H61.5469V24H60.294V22.8665H60.2259C60.0753 23.2159 59.8338 23.5071 59.5014 23.7401C59.1719 23.9702 58.7614 24.0852 58.2699 24.0852C57.8494 24.0852 57.4773 23.9929 57.1534 23.8082C56.8324 23.6207 56.5795 23.3438 56.3949 22.9773C56.2131 22.6108 56.1222 22.1577 56.1222 21.6179V17.4545H57.3963V21.4645C57.3963 21.9105 57.5199 22.2656 57.767 22.5298C58.0142 22.794 58.3352 22.9261 58.7301 22.9261C58.9688 22.9261 59.206 22.8665 59.4418 22.7472C59.6804 22.6278 59.8778 22.4474 60.0341 22.206C60.1932 21.9645 60.2713 21.6577 60.2685 21.2855ZM65.1637 24.1449C64.7489 24.1449 64.3739 24.0682 64.0387 23.9148C63.7035 23.7585 63.4379 23.5327 63.2418 23.2372C63.0487 22.9418 62.9521 22.5795 62.9521 22.1506C62.9521 21.7812 63.0231 21.4773 63.1651 21.2386C63.3072 21 63.4989 20.8111 63.7404 20.6719C63.9819 20.5327 64.2518 20.4276 64.5501 20.3565C64.8484 20.2855 65.1523 20.2315 65.462 20.1946C65.854 20.1491 66.1722 20.1122 66.4165 20.0838C66.6609 20.0526 66.8384 20.0028 66.9492 19.9347C67.06 19.8665 67.1154 19.7557 67.1154 19.6023V19.5724C67.1154 19.2003 67.0103 18.9119 66.8001 18.7074C66.5927 18.5028 66.283 18.4006 65.8711 18.4006C65.4421 18.4006 65.104 18.4957 64.8569 18.6861C64.6126 18.8736 64.4435 19.0824 64.3498 19.3125L63.1523 19.0398C63.2944 18.642 63.5018 18.321 63.7745 18.0767C64.0501 17.8295 64.3668 17.6506 64.7248 17.5398C65.0827 17.4261 65.4592 17.3693 65.854 17.3693C66.1154 17.3693 66.3924 17.4006 66.685 17.4631C66.9805 17.5227 67.256 17.6335 67.5117 17.7955C67.7702 17.9574 67.9819 18.1889 68.1467 18.4901C68.3114 18.7884 68.3938 19.1761 68.3938 19.6534V24H67.1495V23.1051H67.0984C67.016 23.2699 66.8924 23.4318 66.7276 23.5909C66.5629 23.75 66.3512 23.8821 66.0927 23.9872C65.8342 24.0923 65.5245 24.1449 65.1637 24.1449ZM65.4407 23.1222C65.793 23.1222 66.0941 23.0526 66.3441 22.9134C66.5969 22.7741 66.7887 22.5923 66.9194 22.3679C67.0529 22.1406 67.1197 21.8977 67.1197 21.6392V20.7955C67.0742 20.8409 66.9862 20.8835 66.8555 20.9233C66.7276 20.9602 66.5813 20.9929 66.4165 21.0213C66.2518 21.0469 66.0913 21.071 65.935 21.0938C65.7788 21.1136 65.6481 21.1307 65.543 21.1449C65.2958 21.1761 65.07 21.2287 64.8654 21.3026C64.6637 21.3764 64.5018 21.483 64.3796 21.6222C64.2603 21.7585 64.2006 21.9403 64.2006 22.1676C64.2006 22.483 64.3171 22.7216 64.5501 22.8835C64.783 23.0426 65.0799 23.1222 65.4407 23.1222ZM70.0909 24V17.4545H71.3224V18.4943H71.3906C71.5099 18.142 71.7202 17.8651 72.0213 17.6634C72.3253 17.4588 72.669 17.3565 73.0526 17.3565C73.1321 17.3565 73.2259 17.3594 73.3338 17.3651C73.4446 17.3707 73.5312 17.3778 73.5938 17.3864V18.6051C73.5426 18.5909 73.4517 18.5753 73.321 18.5582C73.1903 18.5384 73.0597 18.5284 72.929 18.5284C72.6278 18.5284 72.3594 18.5923 72.1236 18.7202C71.8906 18.8452 71.706 19.0199 71.5696 19.2443C71.4332 19.4659 71.3651 19.7187 71.3651 20.0028V24H70.0909ZM76.5426 24.1449C76.1278 24.1449 75.7528 24.0682 75.4176 23.9148C75.0824 23.7585 74.8168 23.5327 74.6207 23.2372C74.4276 22.9418 74.331 22.5795 74.331 22.1506C74.331 21.7812 74.402 21.4773 74.544 21.2386C74.6861 21 74.8778 20.8111 75.1193 20.6719C75.3608 20.5327 75.6307 20.4276 75.929 20.3565C76.2273 20.2855 76.5313 20.2315 76.8409 20.1946C77.233 20.1491 77.5511 20.1122 77.7955 20.0838C78.0398 20.0526 78.2173 20.0028 78.3281 19.9347C78.4389 19.8665 78.4943 19.7557 78.4943 19.6023V19.5724C78.4943 19.2003 78.3892 18.9119 78.179 18.7074C77.9716 18.5028 77.6619 18.4006 77.25 18.4006C76.821 18.4006 76.483 18.4957 76.2358 18.6861C75.9915 18.8736 75.8224 19.0824 75.7287 19.3125L74.5312 19.0398C74.6733 18.642 74.8807 18.321 75.1534 18.0767C75.429 17.8295 75.7457 17.6506 76.1037 17.5398C76.4616 17.4261 76.8381 17.3693 77.233 17.3693C77.4943 17.3693 77.7713 17.4006 78.0639 17.4631C78.3594 17.5227 78.6349 17.6335 78.8906 17.7955C79.1491 17.9574 79.3608 18.1889 79.5256 18.4901C79.6903 18.7884 79.7727 19.1761 79.7727 19.6534V24H78.5284V23.1051H78.4773C78.3949 23.2699 78.2713 23.4318 78.1065 23.5909C77.9418 23.75 77.7301 23.8821 77.4716 23.9872C77.2131 24.0923 76.9034 24.1449 76.5426 24.1449ZM76.8196 23.1222C77.1719 23.1222 77.473 23.0526 77.723 22.9134C77.9759 22.7741 78.1676 22.5923 78.2983 22.3679C78.4318 22.1406 78.4986 21.8977 78.4986 21.6392V20.7955C78.4531 20.8409 78.3651 20.8835 78.2344 20.9233C78.1065 20.9602 77.9602 20.9929 77.7955 21.0213C77.6307 21.0469 77.4702 21.071 77.3139 21.0938C77.1577 21.1136 77.027 21.1307 76.9219 21.1449C76.6747 21.1761 76.4489 21.2287 76.2443 21.3026C76.0426 21.3764 75.8807 21.483 75.7585 21.6222C75.6392 21.7585 75.5795 21.9403 75.5795 22.1676C75.5795 22.483 75.696 22.7216 75.929 22.8835C76.1619 23.0426 76.4588 23.1222 76.8196 23.1222ZM82.744 20.1136V24H81.4698V17.4545H82.6928V18.5199H82.7738C82.9244 18.1733 83.1602 17.8949 83.4812 17.6847C83.805 17.4744 84.2127 17.3693 84.7042 17.3693C85.1502 17.3693 85.5408 17.4631 85.8761 17.6506C86.2113 17.8352 86.4712 18.1108 86.6559 18.4773C86.8406 18.8437 86.9329 19.2969 86.9329 19.8366V24H85.6587V19.9901C85.6587 19.5156 85.5352 19.1449 85.288 18.8778C85.0408 18.608 84.7013 18.473 84.2695 18.473C83.9741 18.473 83.7113 18.5369 83.4812 18.6648C83.2539 18.7926 83.0735 18.9801 82.94 19.2273C82.8093 19.4716 82.744 19.767 82.744 20.1136ZM91.6971 17.4545V18.4773H88.1218V17.4545H91.6971ZM89.0806 15.8864H90.3548V22.0781C90.3548 22.3253 90.3917 22.5114 90.4656 22.6364C90.5394 22.7585 90.6346 22.8423 90.7511 22.8878C90.8704 22.9304 90.9996 22.9517 91.1388 22.9517C91.2411 22.9517 91.3306 22.9446 91.4073 22.9304C91.484 22.9162 91.5437 22.9048 91.5863 22.8963L91.8164 23.9489C91.7425 23.9773 91.6374 24.0057 91.5011 24.0341C91.3647 24.0653 91.1942 24.0824 90.9897 24.0852C90.6545 24.0909 90.342 24.0312 90.0522 23.9062C89.7624 23.7812 89.5281 23.5881 89.3491 23.3267C89.1701 23.0653 89.0806 22.7372 89.0806 22.3423V15.8864ZM95.8572 24.1321C95.2124 24.1321 94.657 23.9943 94.1911 23.7188C93.728 23.4403 93.37 23.0497 93.1172 22.5469C92.8672 22.0412 92.7422 21.4489 92.7422 20.7699C92.7422 20.0994 92.8672 19.5085 93.1172 18.9972C93.37 18.4858 93.7223 18.0866 94.174 17.7997C94.6286 17.5128 95.1598 17.3693 95.7678 17.3693C96.1371 17.3693 96.495 17.4304 96.8416 17.5526C97.1882 17.6747 97.4993 17.8665 97.7749 18.1278C98.0504 18.3892 98.2678 18.7287 98.4268 19.1463C98.5859 19.5611 98.6655 20.0653 98.6655 20.6591V21.1108H93.4624V20.1562H97.4169C97.4169 19.821 97.3487 19.5241 97.2124 19.2656C97.076 19.0043 96.8842 18.7983 96.6371 18.6477C96.3928 18.4972 96.1058 18.4219 95.7763 18.4219C95.4183 18.4219 95.1058 18.5099 94.8388 18.6861C94.5746 18.8594 94.37 19.0866 94.2251 19.3679C94.0831 19.6463 94.0121 19.9489 94.0121 20.2756V21.0213C94.0121 21.4588 94.0888 21.831 94.2422 22.1378C94.3984 22.4446 94.6158 22.679 94.8942 22.8409C95.1726 23 95.4979 23.0795 95.87 23.0795C96.1115 23.0795 96.3317 23.0455 96.5305 22.9773C96.7294 22.9062 96.9013 22.8011 97.0462 22.6619C97.1911 22.5227 97.3018 22.3509 97.3786 22.1463L98.5845 22.3636C98.4879 22.7187 98.3146 23.0298 98.0646 23.2969C97.8175 23.5611 97.5064 23.767 97.1314 23.9148C96.7592 24.0597 96.3345 24.1321 95.8572 24.1321ZM102.9 24.1321C102.255 24.1321 101.7 23.9943 101.234 23.7188C100.771 23.4403 100.413 23.0497 100.16 22.5469C99.9102 22.0412 99.7852 21.4489 99.7852 20.7699C99.7852 20.0994 99.9102 19.5085 100.16 18.9972C100.413 18.4858 100.765 18.0866 101.217 17.7997C101.672 17.5128 102.203 17.3693 102.811 17.3693C103.18 17.3693 103.538 17.4304 103.885 17.5526C104.231 17.6747 104.542 17.8665 104.818 18.1278C105.093 18.3892 105.311 18.7287 105.47 19.1463C105.629 19.5611 105.708 20.0653 105.708 20.6591V21.1108H100.505V20.1562H104.46C104.46 19.821 104.392 19.5241 104.255 19.2656C104.119 19.0043 103.927 18.7983 103.68 18.6477C103.436 18.4972 103.149 18.4219 102.819 18.4219C102.461 18.4219 102.149 18.5099 101.882 18.6861C101.618 18.8594 101.413 19.0866 101.268 19.3679C101.126 19.6463 101.055 19.9489 101.055 20.2756V21.0213C101.055 21.4588 101.132 21.831 101.285 22.1378C101.441 22.4446 101.659 22.679 101.937 22.8409C102.216 23 102.541 23.0795 102.913 23.0795C103.154 23.0795 103.375 23.0455 103.574 22.9773C103.772 22.9062 103.944 22.8011 104.089 22.6619C104.234 22.5227 104.345 22.3509 104.422 22.1463L105.627 22.3636C105.531 22.7187 105.358 23.0298 105.108 23.2969C104.86 23.5611 104.549 23.767 104.174 23.9148C103.802 24.0597 103.377 24.1321 102.9 24.1321ZM115.16 17.5653C115.115 17.1619 114.927 16.8494 114.598 16.6278C114.268 16.4034 113.853 16.2912 113.353 16.2912C112.995 16.2912 112.686 16.348 112.424 16.4616C112.163 16.5724 111.96 16.7259 111.815 16.9219C111.673 17.1151 111.602 17.3352 111.602 17.5824C111.602 17.7898 111.65 17.9687 111.747 18.1193C111.846 18.2699 111.975 18.3963 112.135 18.4986C112.297 18.598 112.47 18.6818 112.654 18.75C112.839 18.8153 113.017 18.8693 113.187 18.9119L114.039 19.1335C114.318 19.2017 114.603 19.294 114.896 19.4105C115.189 19.527 115.46 19.6804 115.71 19.8707C115.96 20.0611 116.162 20.2969 116.315 20.5781C116.471 20.8594 116.549 21.196 116.549 21.5881C116.549 22.0824 116.422 22.5213 116.166 22.9048C115.913 23.2884 115.545 23.5909 115.062 23.8125C114.582 24.0341 114.001 24.1449 113.319 24.1449C112.666 24.1449 112.1 24.0412 111.623 23.8338C111.146 23.6264 110.772 23.3324 110.502 22.9517C110.233 22.5682 110.083 22.1136 110.055 21.5881H111.376C111.402 21.9034 111.504 22.1662 111.683 22.3764C111.865 22.5838 112.096 22.7386 112.377 22.8409C112.662 22.9403 112.973 22.9901 113.311 22.9901C113.683 22.9901 114.014 22.9318 114.304 22.8153C114.596 22.696 114.826 22.5312 114.994 22.321C115.162 22.108 115.245 21.8594 115.245 21.5753C115.245 21.3168 115.172 21.1051 115.024 20.9403C114.879 20.7756 114.681 20.6392 114.431 20.5312C114.184 20.4233 113.904 20.3281 113.592 20.2457L112.561 19.9645C111.862 19.7741 111.308 19.4943 110.899 19.125C110.493 18.7557 110.289 18.267 110.289 17.6591C110.289 17.1562 110.426 16.7173 110.699 16.3423C110.971 15.9673 111.341 15.6761 111.806 15.4688C112.272 15.2585 112.798 15.1534 113.383 15.1534C113.974 15.1534 114.495 15.2571 114.947 15.4645C115.402 15.6719 115.76 15.9574 116.021 16.321C116.282 16.6818 116.419 17.0966 116.43 17.5653H115.16ZM119.925 24.1449C119.511 24.1449 119.136 24.0682 118.8 23.9148C118.465 23.7585 118.2 23.5327 118.004 23.2372C117.81 22.9418 117.714 22.5795 117.714 22.1506C117.714 21.7812 117.785 21.4773 117.927 21.2386C118.069 21 118.261 20.8111 118.502 20.6719C118.744 20.5327 119.013 20.4276 119.312 20.3565C119.61 20.2855 119.914 20.2315 120.224 20.1946C120.616 20.1491 120.934 20.1122 121.178 20.0838C121.423 20.0526 121.6 20.0028 121.711 19.9347C121.822 19.8665 121.877 19.7557 121.877 19.6023V19.5724C121.877 19.2003 121.772 18.9119 121.562 18.7074C121.354 18.5028 121.045 18.4006 120.633 18.4006C120.204 18.4006 119.866 18.4957 119.619 18.6861C119.374 18.8736 119.205 19.0824 119.112 19.3125L117.914 19.0398C118.056 18.642 118.263 18.321 118.536 18.0767C118.812 17.8295 119.129 17.6506 119.487 17.5398C119.844 17.4261 120.221 17.3693 120.616 17.3693C120.877 17.3693 121.154 17.4006 121.447 17.4631C121.742 17.5227 122.018 17.6335 122.273 17.7955C122.532 17.9574 122.744 18.1889 122.908 18.4901C123.073 18.7884 123.156 19.1761 123.156 19.6534V24H121.911V23.1051H121.86C121.778 23.2699 121.654 23.4318 121.489 23.5909C121.325 23.75 121.113 23.8821 120.854 23.9872C120.596 24.0923 120.286 24.1449 119.925 24.1449ZM120.202 23.1222C120.555 23.1222 120.856 23.0526 121.106 22.9134C121.359 22.7741 121.55 22.5923 121.681 22.3679C121.815 22.1406 121.881 21.8977 121.881 21.6392V20.7955C121.836 20.8409 121.748 20.8835 121.617 20.9233C121.489 20.9602 121.343 20.9929 121.178 21.0213C121.013 21.0469 120.853 21.071 120.697 21.0938C120.54 21.1136 120.41 21.1307 120.305 21.1449C120.058 21.1761 119.832 21.2287 119.627 21.3026C119.425 21.3764 119.263 21.483 119.141 21.6222C119.022 21.7585 118.962 21.9403 118.962 22.1676C118.962 22.483 119.079 22.7216 119.312 22.8835C119.545 23.0426 119.842 23.1222 120.202 23.1222ZM127.968 17.4545V18.4773H124.269V17.4545H127.968ZM125.283 24V16.696C125.283 16.2869 125.373 15.9474 125.551 15.6776C125.73 15.4048 125.968 15.2017 126.263 15.0682C126.559 14.9318 126.88 14.8636 127.226 14.8636C127.482 14.8636 127.701 14.8849 127.882 14.9276C128.064 14.9673 128.199 15.0043 128.287 15.0384L127.989 16.0696C127.929 16.0526 127.853 16.0327 127.759 16.0099C127.665 15.9844 127.551 15.9716 127.418 15.9716C127.108 15.9716 126.887 16.0483 126.753 16.2017C126.623 16.3551 126.557 16.5767 126.557 16.8665V24H125.283ZM131.846 24.1321C131.201 24.1321 130.645 23.9943 130.179 23.7188C129.716 23.4403 129.358 23.0497 129.105 22.5469C128.855 22.0412 128.73 21.4489 128.73 20.7699C128.73 20.0994 128.855 19.5085 129.105 18.9972C129.358 18.4858 129.711 18.0866 130.162 17.7997C130.617 17.5128 131.148 17.3693 131.756 17.3693C132.125 17.3693 132.483 17.4304 132.83 17.5526C133.176 17.6747 133.488 17.8665 133.763 18.1278C134.039 18.3892 134.256 18.7287 134.415 19.1463C134.574 19.5611 134.654 20.0653 134.654 20.6591V21.1108H129.451V20.1562H133.405C133.405 19.821 133.337 19.5241 133.201 19.2656C133.064 19.0043 132.873 18.7983 132.625 18.6477C132.381 18.4972 132.094 18.4219 131.765 18.4219C131.407 18.4219 131.094 18.5099 130.827 18.6861C130.563 18.8594 130.358 19.0866 130.213 19.3679C130.071 19.6463 130 19.9489 130 20.2756V21.0213C130 21.4588 130.077 21.831 130.23 22.1378C130.387 22.4446 130.604 22.679 130.882 22.8409C131.161 23 131.486 23.0795 131.858 23.0795C132.1 23.0795 132.32 23.0455 132.519 22.9773C132.718 22.9062 132.89 22.8011 133.034 22.6619C133.179 22.5227 133.29 22.3509 133.367 22.1463L134.573 22.3636C134.476 22.7187 134.303 23.0298 134.053 23.2969C133.806 23.5611 133.495 23.767 133.12 23.9148C132.748 24.0597 132.323 24.1321 131.846 24.1321ZM146.594 18.1108H145.265C145.213 17.8267 145.118 17.5767 144.979 17.3608C144.84 17.1449 144.669 16.9616 144.468 16.8111C144.266 16.6605 144.04 16.5469 143.79 16.4702C143.543 16.3935 143.28 16.3551 143.002 16.3551C142.499 16.3551 142.049 16.4815 141.651 16.7344C141.256 16.9872 140.944 17.358 140.713 17.8466C140.486 18.3352 140.373 18.9318 140.373 19.6364C140.373 20.3466 140.486 20.946 140.713 21.4347C140.944 21.9233 141.257 22.2926 141.655 22.5426C142.053 22.7926 142.5 22.9176 142.998 22.9176C143.273 22.9176 143.534 22.8807 143.782 22.8068C144.032 22.7301 144.257 22.6179 144.459 22.4702C144.661 22.3224 144.831 22.142 144.971 21.929C145.113 21.7131 145.211 21.4659 145.265 21.1875L146.594 21.1918C146.523 21.6207 146.385 22.0156 146.181 22.3764C145.979 22.7344 145.719 23.044 145.401 23.3054C145.086 23.5639 144.725 23.7642 144.319 23.9062C143.912 24.0483 143.469 24.1193 142.989 24.1193C142.233 24.1193 141.56 23.9403 140.969 23.5824C140.378 23.2216 139.912 22.706 139.571 22.0355C139.233 21.3651 139.064 20.5653 139.064 19.6364C139.064 18.7045 139.235 17.9048 139.576 17.2372C139.917 16.5668 140.382 16.0526 140.973 15.6946C141.564 15.3338 142.236 15.1534 142.989 15.1534C143.452 15.1534 143.884 15.2202 144.284 15.3537C144.688 15.4844 145.05 15.6776 145.371 15.9332C145.692 16.1861 145.958 16.4957 146.168 16.8622C146.378 17.2259 146.52 17.642 146.594 18.1108ZM149.342 20.1136V24H148.067V15.2727H149.325V18.5199H149.406C149.559 18.1676 149.793 17.8878 150.109 17.6804C150.424 17.473 150.836 17.3693 151.344 17.3693C151.793 17.3693 152.185 17.4616 152.521 17.6463C152.859 17.831 153.12 18.1065 153.305 18.473C153.492 18.8366 153.586 19.2912 153.586 19.8366V24H152.312V19.9901C152.312 19.5099 152.188 19.1378 151.941 18.8736C151.694 18.6065 151.35 18.473 150.91 18.473C150.609 18.473 150.339 18.5369 150.1 18.6648C149.864 18.7926 149.678 18.9801 149.542 19.2273C149.408 19.4716 149.342 19.767 149.342 20.1136ZM158.107 24.1321C157.462 24.1321 156.907 23.9943 156.441 23.7188C155.978 23.4403 155.62 23.0497 155.367 22.5469C155.117 22.0412 154.992 21.4489 154.992 20.7699C154.992 20.0994 155.117 19.5085 155.367 18.9972C155.62 18.4858 155.972 18.0866 156.424 17.7997C156.879 17.5128 157.41 17.3693 158.018 17.3693C158.387 17.3693 158.745 17.4304 159.092 17.5526C159.438 17.6747 159.749 17.8665 160.025 18.1278C160.3 18.3892 160.518 18.7287 160.677 19.1463C160.836 19.5611 160.915 20.0653 160.915 20.6591V21.1108H155.712V20.1562H159.667C159.667 19.821 159.599 19.5241 159.462 19.2656C159.326 19.0043 159.134 18.7983 158.887 18.6477C158.643 18.4972 158.356 18.4219 158.026 18.4219C157.668 18.4219 157.356 18.5099 157.089 18.6861C156.825 18.8594 156.62 19.0866 156.475 19.3679C156.333 19.6463 156.262 19.9489 156.262 20.2756V21.0213C156.262 21.4588 156.339 21.831 156.492 22.1378C156.648 22.4446 156.866 22.679 157.144 22.8409C157.423 23 157.748 23.0795 158.12 23.0795C158.362 23.0795 158.582 23.0455 158.781 22.9773C158.979 22.9062 159.151 22.8011 159.296 22.6619C159.441 22.5227 159.552 22.3509 159.629 22.1463L160.835 22.3636C160.738 22.7187 160.565 23.0298 160.315 23.2969C160.067 23.5611 159.756 23.767 159.381 23.9148C159.009 24.0597 158.585 24.1321 158.107 24.1321ZM165.086 24.1321C164.453 24.1321 163.907 23.9886 163.45 23.7017C162.995 23.4119 162.646 23.0128 162.402 22.5043C162.157 21.9957 162.035 21.4134 162.035 20.7571C162.035 20.0923 162.16 19.5057 162.41 18.9972C162.66 18.4858 163.012 18.0866 163.467 17.7997C163.922 17.5128 164.457 17.3693 165.074 17.3693C165.571 17.3693 166.014 17.4616 166.403 17.6463C166.792 17.8281 167.106 18.0838 167.345 18.4134C167.586 18.7429 167.73 19.1278 167.775 19.5682H166.535C166.467 19.2614 166.311 18.9972 166.066 18.7756C165.825 18.554 165.501 18.4432 165.095 18.4432C164.74 18.4432 164.429 18.5369 164.162 18.7244C163.897 18.9091 163.691 19.1733 163.544 19.517C163.396 19.858 163.322 20.2614 163.322 20.7273C163.322 21.2045 163.395 21.6165 163.539 21.9631C163.684 22.3097 163.889 22.5781 164.153 22.7685C164.42 22.9588 164.734 23.054 165.095 23.054C165.336 23.054 165.555 23.0099 165.751 22.9219C165.95 22.831 166.116 22.7017 166.25 22.5341C166.386 22.3665 166.481 22.1648 166.535 21.929H167.775C167.73 22.3523 167.592 22.7301 167.362 23.0625C167.132 23.3949 166.824 23.6562 166.437 23.8466C166.054 24.0369 165.603 24.1321 165.086 24.1321ZM170.31 21.7798L170.301 20.2244H170.523L173.131 17.4545H174.656L171.682 20.608H171.482L170.31 21.7798ZM169.138 24V15.2727H170.412V24H169.138ZM173.271 24L170.928 20.8892L171.805 19.9986L174.835 24H173.271ZM178.305 24.1321C177.691 24.1321 177.156 23.9915 176.699 23.7102C176.241 23.429 175.886 23.0355 175.633 22.5298C175.38 22.0241 175.254 21.4332 175.254 20.7571C175.254 20.0781 175.38 19.4844 175.633 18.9759C175.886 18.4673 176.241 18.0724 176.699 17.7912C177.156 17.5099 177.691 17.3693 178.305 17.3693C178.919 17.3693 179.454 17.5099 179.912 17.7912C180.369 18.0724 180.724 18.4673 180.977 18.9759C181.23 19.4844 181.356 20.0781 181.356 20.7571C181.356 21.4332 181.23 22.0241 180.977 22.5298C180.724 23.0355 180.369 23.429 179.912 23.7102C179.454 23.9915 178.919 24.1321 178.305 24.1321ZM178.309 23.0625C178.707 23.0625 179.037 22.9574 179.298 22.7472C179.559 22.5369 179.752 22.2571 179.877 21.9077C180.005 21.5582 180.069 21.1733 180.069 20.7528C180.069 20.3352 180.005 19.9517 179.877 19.6023C179.752 19.25 179.559 18.9673 179.298 18.7543C179.037 18.5412 178.707 18.4347 178.309 18.4347C177.909 18.4347 177.576 18.5412 177.312 18.7543C177.051 18.9673 176.856 19.25 176.728 19.6023C176.603 19.9517 176.541 20.3352 176.541 20.7528C176.541 21.1733 176.603 21.5582 176.728 21.9077C176.856 22.2571 177.051 22.5369 177.312 22.7472C177.576 22.9574 177.909 23.0625 178.309 23.0625ZM186.925 21.2855V17.4545H188.203V24H186.95V22.8665H186.882C186.732 23.2159 186.49 23.5071 186.158 23.7401C185.828 23.9702 185.418 24.0852 184.926 24.0852C184.506 24.0852 184.134 23.9929 183.81 23.8082C183.489 23.6207 183.236 23.3438 183.051 22.9773C182.869 22.6108 182.778 22.1577 182.778 21.6179V17.4545H184.053V21.4645C184.053 21.9105 184.176 22.2656 184.423 22.5298C184.67 22.794 184.991 22.9261 185.386 22.9261C185.625 22.9261 185.862 22.8665 186.098 22.7472C186.337 22.6278 186.534 22.4474 186.69 22.206C186.849 21.9645 186.928 21.6577 186.925 21.2855ZM192.971 17.4545V18.4773H189.395V17.4545H192.971ZM190.354 15.8864H191.628V22.0781C191.628 22.3253 191.665 22.5114 191.739 22.6364C191.813 22.7585 191.908 22.8423 192.025 22.8878C192.144 22.9304 192.273 22.9517 192.412 22.9517C192.515 22.9517 192.604 22.9446 192.681 22.9304C192.757 22.9162 192.817 22.9048 192.86 22.8963L193.09 23.9489C193.016 23.9773 192.911 24.0057 192.775 24.0341C192.638 24.0653 192.468 24.0824 192.263 24.0852C191.928 24.0909 191.615 24.0312 191.326 23.9062C191.036 23.7812 190.801 23.5881 190.623 23.3267C190.444 23.0653 190.354 22.7372 190.354 22.3423V15.8864Z" fill="#232347"/>
<g clip-path="url(#clip0_853_26110)">
<path d="M35.2724 43.9107C35.2468 46.2694 37.0764 47.5855 38.4547 48.3681C39.8708 49.171 40.3464 49.6859 40.3408 50.404C40.3303 51.5029 39.2113 51.9879 38.1642 52.0067C36.3373 52.0397 35.2751 51.432 34.4306 50.9724L33.7725 54.5606C34.6198 55.0155 36.1886 55.4123 37.8154 55.4297C41.6342 55.4297 44.1325 53.2332 44.146 49.8277C44.161 45.5056 39.0154 45.2664 39.0506 43.3345C39.0627 42.7487 39.5424 42.1236 40.5936 41.9647C41.1139 41.8844 42.5502 41.8229 44.1786 42.6967L44.8177 39.225C43.942 38.8535 42.8165 38.4977 41.4152 38.4977C37.8209 38.4977 35.2928 40.7241 35.2724 43.9107ZM50.959 38.7967C50.2617 38.7967 49.6741 39.2707 49.4118 39.998L43.9569 55.1747H47.7729L48.5322 52.7294H53.1953L53.6358 55.1747H56.9991L54.0641 38.7967H50.959ZM51.4929 43.221L52.5941 49.3711H49.5781L51.4929 43.221ZM30.6458 38.7969L27.6379 55.1745H31.2742L34.2807 38.7965L30.6458 38.7969ZM25.2665 38.7969L21.4816 49.9442L19.9506 40.4658C19.771 39.4077 19.0615 38.7967 18.2737 38.7967H12.0867L12 39.2723C13.2702 39.5935 14.7133 40.1115 15.5876 40.6657C16.1227 41.0043 16.2753 41.3002 16.451 42.1048L19.3508 55.1747H23.1935L29.0849 38.7967L25.2665 38.7969Z" fill="url(#paint0_linear_853_26110)"/>
</g>
<g clip-path="url(#clip1_853_26110)">
<path d="M73.3636 58.8835V57.295C73.3636 56.686 73.0755 56.2889 72.5815 56.2889C72.3346 56.2889 72.067 56.3948 71.8818 56.739C71.7378 56.4478 71.532 56.2889 71.2233 56.2889C71.0174 56.2889 70.8117 56.3683 70.647 56.6596V56.3419H70.2148V58.8835H70.647V57.4803C70.647 57.0303 70.8323 56.8184 71.1204 56.8184C71.4084 56.8184 71.5526 57.0567 71.5526 57.4803V58.8835H71.9848V57.4803C71.9848 57.0303 72.1905 56.8184 72.458 56.8184C72.7462 56.8184 72.8902 57.0567 72.8902 57.4803V58.8835H73.3636ZM79.7639 56.3419H79.0642V55.5741H78.6321V56.3419H78.241V56.8448H78.632V58.0098C78.632 58.5923 78.8172 58.9364 79.3112 58.9364C79.4964 58.9364 79.7021 58.8571 79.8463 58.7512L79.7227 58.2746C79.5992 58.3804 79.4553 58.407 79.3523 58.407C79.1465 58.407 79.0642 58.2481 79.0642 57.9833V56.8448H79.7639V56.3419ZM83.4271 56.2888C83.1802 56.2888 83.0156 56.4478 82.9127 56.6596V56.3419H82.4805V58.8835H82.9127V57.4538C82.9127 57.0303 83.0567 56.792 83.3242 56.792C83.4065 56.792 83.5095 56.8185 83.5918 56.8449L83.7152 56.3155C83.6329 56.2889 83.5095 56.2889 83.4271 56.2889M77.8912 56.5538C77.6853 56.3684 77.3972 56.2891 77.0885 56.2891C76.5946 56.2891 76.2654 56.6067 76.2654 57.1098C76.2654 57.5334 76.5123 57.7716 76.9445 57.8511L77.1503 57.8776C77.3767 57.9305 77.5001 58.0099 77.5001 58.1424C77.5001 58.3276 77.3355 58.46 77.0473 58.46C76.7593 58.46 76.5329 58.3276 76.3888 58.1953L76.183 58.6189C76.4094 58.8307 76.7181 58.9365 77.0267 58.9365C77.603 58.9365 77.9323 58.5925 77.9323 58.1158C77.9323 57.6657 77.6648 57.4274 77.2531 57.3481L77.0473 57.3215C76.8621 57.295 76.7181 57.2422 76.7181 57.0834C76.7181 56.898 76.8621 56.7921 77.0885 56.7921C77.3355 56.7921 77.5825 56.9244 77.7059 57.0039L77.8912 56.5538ZM89.3748 56.2891C89.1277 56.2891 88.9631 56.4479 88.8602 56.6597V56.342H88.428V58.8836H88.8602V57.454C88.8602 57.0304 89.0043 56.7921 89.2717 56.7921C89.3541 56.7921 89.4571 56.8186 89.5394 56.845L89.6629 56.3156C89.5805 56.2891 89.4571 56.2891 89.3748 56.2891ZM83.8593 57.6128C83.8593 58.3806 84.2709 58.9365 84.9089 58.9365C85.197 58.9365 85.4028 58.8572 85.6086 58.6454L85.4028 58.1953C85.2382 58.3541 85.0735 58.4335 84.8883 58.4335C84.5384 58.4335 84.2915 58.1158 84.2915 57.6128C84.2915 57.1363 84.5384 56.8185 84.8883 56.7921C85.0735 56.7921 85.2382 56.8715 85.4028 57.0304L85.6086 56.5803C85.4028 56.3684 85.197 56.2891 84.9089 56.2891C84.2709 56.2891 83.8593 56.845 83.8593 57.6128ZM87.8518 57.6128V56.342H87.4197V56.6597C87.2756 56.4215 87.0698 56.2891 86.8022 56.2891C86.2466 56.2891 85.8144 56.845 85.8144 57.6128C85.8144 58.3806 86.2466 58.9365 86.8022 58.9365C87.0903 58.9365 87.2962 58.8042 87.4197 58.5659V58.8836H87.8518V57.6128ZM86.2671 57.6128C86.2671 57.1627 86.4935 56.7921 86.8639 56.7921C87.2138 56.7921 87.4608 57.1363 87.4608 57.6128C87.4608 58.0629 87.2138 58.4335 86.8639 58.4335C86.4935 58.407 86.2671 58.0629 86.2671 57.6128ZM81.1016 56.2891C80.5254 56.2891 80.1137 56.8185 80.1137 57.6128C80.1137 58.4071 80.5253 58.9365 81.1222 58.9365C81.4103 58.9365 81.6984 58.8307 81.9248 58.5925L81.719 58.1953C81.5544 58.3541 81.3486 58.46 81.1428 58.46C80.8752 58.46 80.6077 58.3012 80.5459 57.851H82.0072V57.6393C82.0278 56.8185 81.6574 56.2891 81.1016 56.2891ZM81.1016 56.7656C81.369 56.7656 81.5544 56.9775 81.5954 57.3746H80.5664C80.6076 57.0304 80.7928 56.7656 81.1016 56.7656ZM91.8236 57.6128V55.3359H91.3915V56.6597C91.2474 56.4215 91.0416 56.2891 90.774 56.2891C90.2184 56.2891 89.7862 56.845 89.7862 57.6128C89.7862 58.3806 90.2184 58.9365 90.774 58.9365C91.0622 58.9365 91.268 58.8042 91.3915 58.5659V58.8836H91.8236V57.6128ZM90.239 57.6128C90.239 57.1627 90.4653 56.7921 90.8358 56.7921C91.1857 56.7921 91.4326 57.1363 91.4326 57.6128C91.4326 58.0629 91.1857 58.4335 90.8358 58.4335C90.4653 58.407 90.239 58.0629 90.239 57.6128ZM75.7919 57.6128V56.342H75.3597V56.6597C75.2156 56.4215 75.0098 56.2891 74.7423 56.2891C74.1866 56.2891 73.7545 56.845 73.7545 57.6128C73.7545 58.3806 74.1866 58.9365 74.7423 58.9365C75.0305 58.9365 75.2362 58.8042 75.3597 58.5659V58.8836H75.7919V57.6128ZM74.1866 57.6128C74.1866 57.1627 74.413 56.7921 74.7834 56.7921C75.1333 56.7921 75.3803 57.1363 75.3803 57.6128C75.3803 58.0629 75.1333 58.4335 74.7834 58.4335C74.413 58.407 74.1866 58.0629 74.1866 57.6128Z" fill="black"/>
<path d="M77.7471 37.0391H84.2297V52.0241H77.7471V37.0391Z" fill="#FF5F00"/>
<path d="M78.1581 44.5311C78.1581 41.4865 79.2694 38.786 80.9775 37.0386C79.7222 35.7678 78.1376 35 76.4089 35C72.3133 35 69 39.2625 69 44.5311C69 49.7997 72.3133 54.0623 76.4088 54.0623C78.1375 54.0623 79.7221 53.2945 80.9775 52.0236C79.2694 50.3027 78.1581 47.5758 78.1581 44.5311Z" fill="#EB001B"/>
<path d="M92.9755 44.5311C92.9755 49.7997 89.6622 54.0623 85.5667 54.0623C83.838 54.0623 82.2534 53.2945 80.998 52.0236C82.7268 50.2763 83.8175 47.5758 83.8175 44.5311C83.8175 41.4865 82.7061 38.786 80.998 37.0386C82.2533 35.7678 83.838 35 85.5667 35C89.6622 35 92.9755 39.289 92.9755 44.5311Z" fill="#F79E1B"/>
</g>
<g clip-path="url(#clip2_853_26110)">
<path d="M125.359 36.8658C124.053 35.6036 121.691 35.0625 118.671 35.0625H109.904C109.605 35.0625 109.316 35.1529 109.089 35.3174C108.861 35.4819 108.711 35.7098 108.664 35.96L105.013 55.5866C104.941 55.9736 105.294 56.324 105.757 56.324H111.169L112.529 49.0151L112.487 49.244C112.583 48.7273 113.105 48.3463 113.722 48.3463H116.294C121.346 48.3463 125.303 46.6065 126.458 41.5737C126.493 41.4249 126.522 41.28 126.548 41.1385C126.402 41.073 126.402 41.073 126.548 41.1385C126.892 39.2783 126.546 38.0121 125.359 36.8658Z" fill="#27346A"/>
<path d="M114.6 40.4684C114.748 40.4087 114.91 40.3777 115.073 40.3778H121.947C122.76 40.3778 123.52 40.4227 124.213 40.5173C124.407 40.5436 124.601 40.5749 124.792 40.6113C125.064 40.6621 125.333 40.7244 125.598 40.7978C125.939 40.8943 126.256 41.0068 126.548 41.1385C126.892 39.2776 126.546 38.0121 125.359 36.8658C124.052 35.6036 121.691 35.0625 118.671 35.0625H109.903C109.286 35.0625 108.761 35.4435 108.664 35.96L105.013 55.5858C104.941 55.9735 105.294 56.3235 105.756 56.3235H111.169L113.99 41.163C114.017 41.0139 114.087 40.8729 114.194 40.7519C114.3 40.6309 114.439 40.5336 114.6 40.4684Z" fill="#27346A"/>
<path d="M126.458 41.5759C125.302 46.6079 121.346 48.3484 116.294 48.3484H113.721C113.104 48.3484 112.582 48.7295 112.486 49.2461L110.795 58.3339C110.732 58.6726 111.041 58.9795 111.445 58.9795H116.008C116.269 58.9795 116.522 58.9004 116.721 58.7564C116.919 58.6125 117.051 58.4132 117.092 58.1944L117.136 57.9973L117.996 53.3772L118.052 53.1219C118.092 52.903 118.224 52.7037 118.423 52.5598C118.621 52.4159 118.874 52.3368 119.135 52.3367H119.818C124.238 52.3367 127.699 50.8145 128.71 46.4122C129.132 44.5725 128.914 43.0365 127.797 41.9576C127.458 41.6308 127.038 41.3609 126.548 41.1406C126.521 41.2829 126.493 41.427 126.458 41.5759Z" fill="#2790C3"/>
<path d="M125.339 40.7348C125.158 40.6902 124.977 40.6507 124.793 40.6164C124.601 40.5806 124.408 40.5495 124.214 40.5231C123.52 40.4278 122.761 40.3828 121.946 40.3828H115.074C114.91 40.3825 114.748 40.4137 114.6 40.4741C114.44 40.5391 114.3 40.6364 114.194 40.7574C114.088 40.8784 114.018 41.0196 113.99 41.1687L112.529 49.0202L112.487 49.2491C112.583 48.7324 113.105 48.3514 113.722 48.3514H116.295C121.347 48.3514 125.303 46.6116 126.459 41.5788C126.494 41.43 126.522 41.2858 126.549 41.1436C126.256 41.0126 125.94 40.8995 125.598 40.8035C125.512 40.7793 125.426 40.7564 125.339 40.7348" fill="#1F264F"/>
</g>
<g clip-path="url(#clip3_853_26110)">
<path d="M165 47C165 53.627 159.627 59 153 59C146.373 59 141 53.627 141 47C141 45.174 141.407 43.445 142.137 41.895C141.679 43.0372 141.44 44.2554 141.433 45.486C141.433 50.92 145.82 51.706 147.687 51.689C150.524 51.663 153.841 50.273 156.635 47.698L156.164 50.348C156.058 50.953 156.454 51.486 157.06 51.49H157.31C157.937 51.49 158.383 50.979 158.496 50.347L159.502 44.685C159.622 44.057 159.209 43.545 158.581 43.545H152.908C152.278 43.545 151.701 43.879 151.588 44.513L151.544 44.768C151.454 45.371 151.874 45.825 152.475 45.825H155.435L155.293 45.964C153.253 47.894 150.737 48.952 148.653 48.952C146.573 48.952 144.243 47.639 144.243 44.683C144.243 38.555 149.99 35 153 35C159.614 35 165 40.373 165 47Z" fill="#E30100"/>
</g>
<g clip-path="url(#clip4_853_26110)">
<path fill-rule="evenodd" clip-rule="evenodd" d="M201 47C201 50.1826 199.736 53.2348 197.485 55.4853C195.235 57.7357 192.183 59 189 59C185.817 59 182.765 57.7357 180.515 55.4853C178.264 53.2348 177 50.1826 177 47C177 43.8174 178.264 40.7652 180.515 38.5147C182.765 36.2643 185.817 35 189 35C192.183 35 195.235 36.2643 197.485 38.5147C199.736 40.7652 201 43.8174 201 47ZM189 39.2857C189.126 39.2858 189.25 39.3134 189.363 39.3667C189.477 39.4201 189.578 39.4978 189.658 39.5943L193.944 44.7371C194.017 44.8247 194.071 44.9259 194.105 45.0349C194.138 45.1438 194.149 45.2583 194.138 45.3716C194.126 45.4849 194.092 45.5948 194.038 45.6949C193.983 45.7949 193.909 45.8831 193.821 45.9543L189.535 49.3829C189.383 49.5041 189.194 49.5702 189 49.5702C188.806 49.5702 188.617 49.5041 188.465 49.3829L184.179 45.9543C184.091 45.8831 184.017 45.7949 183.962 45.6949C183.908 45.5948 183.874 45.4849 183.862 45.3716C183.851 45.2583 183.862 45.1438 183.895 45.0349C183.929 44.9259 183.983 44.8247 184.056 44.7371L188.342 39.5943C188.422 39.4978 188.523 39.4201 188.637 39.3667C188.75 39.3134 188.874 39.2858 189 39.2857ZM185.383 49.592C185.274 49.4989 185.147 49.4288 185.01 49.3857C184.873 49.3426 184.729 49.3274 184.586 49.3411C184.443 49.3548 184.304 49.3971 184.178 49.4654C184.052 49.5337 183.941 49.6267 183.851 49.7388C183.762 49.8509 183.695 49.9799 183.657 50.118C183.618 50.2562 183.607 50.4008 183.625 50.5431C183.643 50.6855 183.69 50.8228 183.762 50.9468C183.834 51.0708 183.931 51.1791 184.046 51.2651L188.331 54.6937C188.521 54.8453 188.757 54.9279 189 54.9279C189.243 54.9279 189.479 54.8453 189.669 54.6937L193.954 51.2651C194.069 51.1791 194.166 51.0708 194.238 50.9468C194.31 50.8228 194.357 50.6855 194.375 50.5431C194.393 50.4008 194.382 50.2562 194.343 50.118C194.305 49.9799 194.238 49.8509 194.149 49.7388C194.059 49.6267 193.948 49.5337 193.822 49.4654C193.696 49.3971 193.557 49.3548 193.414 49.3411C193.271 49.3274 193.127 49.3426 192.99 49.3857C192.853 49.4288 192.726 49.4989 192.617 49.592L189 52.4857L185.383 49.592Z" fill="#2FA804"/>
</g>
<path d="M203.52 47.082H208.7V47.964H203.52V47.082ZM203.632 51.604H209.526V52.5H202.596V42.7H209.316V43.596H203.632V51.604ZM213.865 52.5V43.596H210.421V42.7H218.345V43.596H214.901V52.5H213.865ZM227.168 42.7H228.19V52.5H227.168V42.7ZM221.036 52.5H220V42.7H221.036V52.5ZM227.266 47.978H220.924V47.068H227.266V47.978Z" fill="#232347"/>
<defs>
<linearGradient id="paint0_linear_853_26110" x1="2080.79" y1="89.3953" x2="2137.88" y2="-1649.05" gradientUnits="userSpaceOnUse">
<stop stop-color="#222357"/>
<stop offset="1" stop-color="#254AA5"/>
</linearGradient>
<clipPath id="clip0_853_26110">
<rect width="45" height="17" fill="white" transform="translate(12 38.5)"/>
</clipPath>
<clipPath id="clip1_853_26110">
<rect width="24" height="24" fill="white" transform="translate(69 35)"/>
</clipPath>
<clipPath id="clip2_853_26110">
<rect width="24" height="24" fill="white" transform="translate(105 35)"/>
</clipPath>
<clipPath id="clip3_853_26110">
<rect width="24" height="24" fill="white" transform="translate(141 35)"/>
</clipPath>
<clipPath id="clip4_853_26110">
<rect width="24" height="24" fill="white" transform="translate(177 35)"/>
</clipPath>
</defs>
</svg>
