<svg width="33" height="32" viewBox="0 0 33 32" fill="none" xmlns="http://www.w3.org/2000/svg">
<path d="M21.9385 25.9375H11.0625C10.3995 25.9375 9.76357 25.6741 9.29473 25.2052C8.82589 24.7364 8.5625 24.1005 8.5625 23.4375V22.6105C8.5625 18.6415 12.1235 15.4105 16.5005 15.4105C20.8775 15.4105 24.4385 18.6395 24.4385 22.6105V23.4375C24.4385 24.1005 24.1751 24.7364 23.7063 25.2052C23.2374 25.6741 22.6015 25.9375 21.9385 25.9375ZM16.5005 16.4125C12.6745 16.4125 9.5625 19.1925 9.5625 22.6125V23.4395C9.5625 23.8373 9.72054 24.2188 10.0018 24.5001C10.2831 24.7814 10.6647 24.9395 11.0625 24.9395H21.9385C22.3363 24.9395 22.7179 24.7814 22.9992 24.5001C23.2805 24.2188 23.4385 23.8373 23.4385 23.4395V22.6105C23.4385 19.1925 20.3265 16.4125 16.5005 16.4125ZM16.5005 13.9115C15.7244 13.9117 14.9656 13.6817 14.3202 13.2507C13.6747 12.8196 13.1716 12.2068 12.8745 11.4898C12.5773 10.7728 12.4995 9.9838 12.6508 9.22256C12.8021 8.46131 13.1757 7.76203 13.7245 7.21315C14.2732 6.66426 14.9724 6.29044 15.7336 6.13895C16.4948 5.98746 17.2838 6.06511 18.0009 6.36208C18.718 6.65905 19.3309 7.162 19.7621 7.80732C20.1933 8.45264 20.4235 9.21134 20.4235 9.98748C20.4227 11.0278 20.0092 12.0252 19.2737 12.7609C18.5382 13.4966 17.5408 13.9104 16.5005 13.9115ZM16.5005 7.06448C15.9221 7.06428 15.3566 7.23563 14.8756 7.55684C14.3946 7.87806 14.0197 8.33472 13.7983 8.86905C13.5768 9.40338 13.5188 9.99138 13.6316 10.5587C13.7444 11.126 14.0229 11.6471 14.4319 12.0561C14.8409 12.465 15.362 12.7436 15.9293 12.8563C16.4966 12.9691 17.0846 12.9111 17.6189 12.6897C18.1533 12.4683 18.6099 12.0933 18.9311 11.6123C19.2524 11.1313 19.4237 10.5659 19.4235 9.98748C19.4227 9.21249 19.1145 8.46948 18.5665 7.92148C18.0185 7.37349 17.2755 7.06527 16.5005 7.06448Z" fill="white" fill-opacity="0.8"/>
</svg>
