<svg width="24" height="21" viewBox="0 0 24 21" fill="none" xmlns="http://www.w3.org/2000/svg">
<path d="M7.54776 20.259C16.6048 20.259 21.5578 12.7511 21.5578 6.24046C21.5578 6.02724 21.5534 5.815 21.5438 5.60363C22.5075 4.90586 23.3393 4.04192 24 3.05229C23.1177 3.44478 22.1683 3.70894 21.1723 3.82804C22.1889 3.21809 22.9694 2.25313 23.3376 1.10291C22.371 1.67665 21.3136 2.08111 20.2109 2.29885C19.3123 1.34116 18.0331 0.742188 16.6166 0.742188C13.8974 0.742188 11.6923 2.94866 11.6923 5.66847C11.6923 6.05515 11.7356 6.43114 11.8201 6.79191C7.72766 6.58586 4.09878 4.6253 1.67015 1.64416C1.23273 2.39606 1.00265 3.25061 1.00341 4.12055C1.00341 5.82993 1.87268 7.33892 3.19463 8.22176C2.41268 8.19786 1.6479 7.98652 0.964585 7.60552C0.963854 7.6262 0.963854 7.64635 0.963854 7.66846C0.963854 10.0545 2.66112 12.0468 4.91419 12.4982C4.49104 12.6135 4.05439 12.6718 3.6158 12.6715C3.29907 12.6715 2.99039 12.6404 2.69039 12.5827C3.31727 14.5404 5.13502 15.965 7.29019 16.0048C5.60488 17.3265 3.4819 18.1138 1.17454 18.1138C0.782024 18.1141 0.389833 18.0913 0 18.0455C2.17922 19.4431 4.76683 20.2586 7.548 20.2586" fill="#5F6C72"/>
</svg>
