<svg width="20" height="25" viewBox="0 0 20 25" fill="none" xmlns="http://www.w3.org/2000/svg">
<path d="M8.53658 0.588076C4.54829 1.0333 0.574061 4.26001 0.41003 8.86927C0.306925 11.6836 1.10599 13.7949 3.78437 14.3877C4.94665 12.3373 3.40945 11.8851 3.17043 10.4018C2.18859 4.32328 10.1816 0.177999 14.3643 4.4217C17.2583 7.36019 15.3532 16.4006 10.6854 15.4609C6.21437 14.5635 12.874 7.36722 9.30517 5.95421C6.40418 4.806 4.86229 9.46681 6.2378 11.782C5.43171 15.7632 3.69533 19.5148 4.39832 24.5084C6.67834 22.854 7.44694 19.6859 8.07729 16.3819C9.22316 17.0778 9.83476 17.8019 11.297 17.9144C16.6889 18.3315 19.7 12.5318 18.9642 7.1821C18.3105 2.43928 13.577 0.0256854 8.53658 0.588076Z" fill="#5F6C72"/>
</svg>
